<svg width="30" height="30" viewBox="0 0 30 30" fill="none" xmlns="http://www.w3.org/2000/svg">
<g clipPath="url(#clip0_2735_18689)">
<path d="M11.8514 3.13123C11.4092 3.49207 11.036 3.93 10.7498 4.4238L1.30217 20.7176C0.671636 21.8125 0.499996 23.1124 0.82474 24.3334C1.14949 25.5544 1.94422 26.5974 3.03537 27.2343C4.13027 27.8649 5.4302 28.0365 6.65123 27.7118C7.87226 27.387 8.91517 26.5923 9.55217 25.5011L17.6727 11.4972C15.8809 8.92498 13.267 5.17322 11.8514 3.13123Z" fill="white"/>
<path d="M5.43242 27.8775C8.06592 27.8775 10.2008 25.7427 10.2008 23.1092C10.2008 20.4757 8.06592 18.3408 5.43242 18.3408C2.79893 18.3408 0.664062 20.4757 0.664062 23.1092C0.664062 25.7427 2.79893 27.8775 5.43242 27.8775Z" fill="white"/>
<path d="M20.1617 25.512C21.4785 27.7926 24.3947 28.574 26.6753 27.2572C28.9559 25.9405 29.7373 23.0243 28.4205 20.7436L19.003 4.43257C17.6863 2.15197 14.7701 1.37061 12.4895 2.68736C10.2088 4.0041 9.42749 6.92033 10.7442 9.20093L20.1617 25.512Z" fill="white"/>
</g>
<defs>
<clipPath id="clip0_2735_18689">
<rect width="30" height="30" fill="white"/>
</clipPath>
</defs>
</svg>
