<svg width="29" height="28" viewBox="0 0 29 28" fill="none" xmlns="http://www.w3.org/2000/svg">
<g clipPath="url(#clip0_2735_18652)">
<path d="M27.2794 11.5658L15.8584 11.5652C15.3541 11.5652 14.9453 11.974 14.9453 12.4783V16.1268C14.9453 16.631 15.3541 17.0398 15.8584 17.0398H22.29C21.5857 18.8676 20.2712 20.3982 18.5942 21.3708L21.3366 26.1181C25.7358 23.5739 28.3366 19.1098 28.3366 14.1126C28.3366 13.4011 28.2841 12.8924 28.1793 12.3197C28.0995 11.8845 27.7217 11.5658 27.2794 11.5658Z" fill="white"/>
<path d="M14.3369 22.5213C11.1894 22.5213 8.44169 20.8016 6.96595 18.2568L2.21875 20.9931C4.63457 25.1801 9.16018 27.9996 14.3369 27.9996C16.8764 27.9996 19.2727 27.3158 21.3369 26.1242V26.1177L18.5945 21.3703C17.3401 22.0979 15.8884 22.5213 14.3369 22.5213Z" fill="white"/>
<path d="M21.3359 26.1247V26.1181L18.5935 21.3707C17.3391 22.0982 15.8876 22.5217 14.3359 22.5217V28C16.8755 28 19.2718 27.3162 21.3359 26.1247Z" fill="white"/>
<path d="M5.8142 14C5.8142 12.4486 6.2376 10.9971 6.96499 9.74277L2.21779 7.00653C1.01964 9.06426 0.335938 11.454 0.335938 14C0.335938 16.5461 1.01964 18.9358 2.21779 20.9935L6.96499 18.2573C6.2376 17.0029 5.8142 15.5515 5.8142 14Z" fill="white"/>
<path d="M14.3369 5.47826C16.3894 5.47826 18.2747 6.20758 19.7472 7.42071C20.1105 7.71996 20.6385 7.69836 20.9713 7.36558L23.5564 4.78051C23.934 4.40294 23.907 3.78492 23.5037 3.43503C21.0365 1.29462 17.8263 0 14.3369 0C9.16018 0 4.63457 2.81952 2.21875 7.00651L6.96595 9.74274C8.4417 7.19797 11.1894 5.47826 14.3369 5.47826Z" fill="white"/>
<path d="M19.7463 7.42071C20.1096 7.71996 20.6376 7.69836 20.9703 7.36559L23.5554 4.78051C23.9329 4.40295 23.906 3.78492 23.5028 3.43503C21.0355 1.29456 17.8254 0 14.3359 0V5.47827C16.3884 5.47827 18.2737 6.20758 19.7463 7.42071Z" fill="white"/>
</g>
<defs>
<clipPath id="clip0_2735_18652">
<rect width="28" height="28" fill="white" transform="translate(0.335938)"/>
</clipPath>
</defs>
</svg>
