<svg width="34" height="34" viewBox="0 0 34 34" fill="none" xmlns="http://www.w3.org/2000/svg">
<path d="M23.3782 0.333984H10.6449C4.9649 0.333984 0.351562 4.94732 0.351562 10.6273V23.3607C0.351562 29.0407 4.9649 33.654 10.6449 33.654H23.3782C29.0582 33.654 33.6716 29.0407 33.6716 23.3607V10.6273C33.6716 4.94732 29.0582 0.333984 23.3782 0.333984ZM29.9516 23.374C29.9516 27.0007 27.0049 29.9607 23.3649 29.9607H10.6316C7.0049 29.9607 4.0449 27.014 4.0449 23.374V10.6407C4.0449 7.01399 6.99156 4.05398 10.6316 4.05398H23.3649C26.9916 4.05398 29.9516 7.00065 29.9516 10.6407V23.374Z" fill="white"/>
<path d="M17.0044 8.48096C12.311 8.48096 8.48438 12.3076 8.48438 17.001C8.48438 21.6943 12.311 25.521 17.0044 25.521C21.6977 25.521 25.5244 21.6943 25.5244 17.001C25.5244 12.3076 21.6977 8.48096 17.0044 8.48096ZM17.0044 22.1743C14.151 22.1743 11.831 19.8543 11.831 17.001C11.831 14.1476 14.151 11.8276 17.0044 11.8276C19.8577 11.8276 22.1777 14.1476 22.1777 17.001C22.1777 19.8543 19.8577 22.1743 17.0044 22.1743Z" fill="white"/>
<path d="M26.1711 9.41489C26.9561 9.28765 27.4893 8.54816 27.362 7.76321C27.2348 6.97826 26.4953 6.44509 25.7103 6.57233C24.9254 6.69958 24.3922 7.43906 24.5195 8.22401C24.6467 9.00896 25.3862 9.54214 26.1711 9.41489Z" fill="white"/>
</svg>
