<svg width="34" height="34" viewBox="0 0 34 34" fill="none" xmlns="http://www.w3.org/2000/svg">
<path d="M9.09091 4.87877C9.09091 5.77778 8.82433 6.65659 8.32487 7.40409C7.82541 8.15159 7.1155 8.73419 6.28493 9.07822C5.45436 9.42226 4.54042 9.51227 3.65868 9.33689C2.77695 9.1615 1.96703 8.72859 1.33134 8.09289C0.695642 7.4572 0.262729 6.64728 0.0873419 5.76554C-0.0880456 4.88381 0.00196905 3.96987 0.346004 3.1393C0.690039 2.30873 1.27264 1.59882 2.02014 1.09936C2.76764 0.599899 3.64645 0.333313 4.54546 0.333313C5.75099 0.333313 6.90714 0.812208 7.75958 1.66465C8.61202 2.51708 9.09091 3.67324 9.09091 4.87877Z" fill="white"/>
<path d="M8.05806 12.4545V32.5364C8.05886 32.6845 8.03037 32.8314 7.97423 32.9685C7.91809 33.1056 7.8354 33.2302 7.73093 33.3353C7.62645 33.4403 7.50224 33.5237 7.36545 33.5805C7.22865 33.6374 7.08196 33.6667 6.93382 33.6667H2.1429C1.99476 33.6671 1.84799 33.6382 1.71104 33.5817C1.57409 33.5252 1.44966 33.4422 1.34491 33.3374C1.24015 33.2326 1.15713 33.1082 1.10062 32.9713C1.04411 32.8343 1.01523 32.6876 1.01563 32.5394V12.4545C1.01563 12.1556 1.1344 11.8688 1.3458 11.6574C1.55721 11.446 1.84393 11.3273 2.1429 11.3273H6.93382C7.23226 11.3281 7.51821 11.4472 7.72896 11.6585C7.93971 11.8698 8.05806 12.1561 8.05806 12.4545Z" fill="white"/>
<path d="M33.1041 22.9094V32.6306C33.1045 32.7668 33.078 32.9017 33.026 33.0277C32.9741 33.1536 32.8978 33.268 32.8014 33.3643C32.7051 33.4606 32.5907 33.5369 32.4648 33.5889C32.3389 33.6408 32.2039 33.6674 32.0677 33.667H26.9162C26.78 33.6674 26.6451 33.6408 26.5191 33.5889C26.3932 33.5369 26.2788 33.4606 26.1825 33.3643C26.0862 33.268 26.0099 33.1536 25.9579 33.0277C25.906 32.9017 25.8794 32.7668 25.8798 32.6306V23.2094C25.8798 21.8033 26.292 17.0518 22.2041 17.0518C19.0374 17.0518 18.392 20.3033 18.2647 21.7639V32.6306C18.2647 32.9028 18.1576 33.1642 17.9665 33.3581C17.7754 33.552 17.5157 33.663 17.2435 33.667H12.2677C12.1318 33.667 11.9971 33.6401 11.8716 33.588C11.746 33.5359 11.632 33.4595 11.536 33.3632C11.44 33.267 11.3639 33.1527 11.3122 33.027C11.2604 32.9012 11.234 32.7665 11.2344 32.6306V12.3669C11.234 12.231 11.2604 12.0963 11.3122 11.9706C11.3639 11.8448 11.44 11.7306 11.536 11.6343C11.632 11.538 11.746 11.4616 11.8716 11.4095C11.9971 11.3574 12.1318 11.3306 12.2677 11.3306H17.2435C17.5183 11.3306 17.7819 11.4398 17.9763 11.6341C18.1707 11.8285 18.2798 12.0921 18.2798 12.3669V14.1184C19.4556 12.3548 21.198 10.9942 24.9162 10.9942C33.1526 10.9942 33.1041 18.6851 33.1041 22.9094Z" fill="white"/>
</svg>
