<svg width="94" height="38" viewBox="0 0 94 38" fill="none" xmlns="http://www.w3.org/2000/svg">
<g clipPath="url(#clip0_2735_19299)">
<path d="M22.3358 0.941406C18.6713 0.941406 15.157 2.39711 12.5658 4.98828L4.10937 13.4447C1.5182 16.0359 0.0625 19.5502 0.0625 23.2147C0.0625 30.8456 6.24853 37.0316 13.8794 37.0316C17.5439 37.0316 21.0582 35.5759 23.6494 32.9847L29.4988 27.1353C29.4988 27.1352 29.4989 27.1355 29.4988 27.1353L46.5419 10.0922C47.7794 8.85468 49.4579 8.15945 51.208 8.15945C54.1381 8.15945 56.6221 10.0691 57.4834 12.7117L62.8621 7.33294C60.4084 3.48979 56.1058 0.941406 51.208 0.941406C47.5435 0.941406 44.0292 2.39711 41.438 4.98828L18.5455 27.8808C17.308 29.1184 15.6295 29.8136 13.8794 29.8136C10.2349 29.8136 7.28054 26.8592 7.28054 23.2147C7.28054 21.4646 7.97577 19.7862 9.2133 18.5486L17.6697 10.0922C18.9073 8.85468 20.5857 8.15945 22.3358 8.15945C25.266 8.15945 27.75 10.0692 28.6112 12.7119L33.9901 7.33307C31.5363 3.48986 27.2337 0.941406 22.3358 0.941406Z" fill="white"/>
<path d="M47.4213 27.8808C46.1838 29.1184 44.5053 29.8136 42.7552 29.8136C39.8255 29.8136 37.3417 27.9044 36.4802 25.2622L31.1016 30.6409C33.5555 34.4835 37.8578 37.0316 42.7552 37.0316C46.4197 37.0316 49.934 35.5759 52.5252 32.9847L75.4177 10.0922C76.6552 8.85468 78.3337 8.15945 80.0838 8.15945C83.7283 8.15945 86.6827 11.1138 86.6827 14.7583C86.6827 16.5084 85.9875 18.1869 84.7499 19.4244L76.2935 27.8808C75.056 29.1184 73.3775 29.8136 71.6274 29.8136C68.6975 29.8136 66.2135 27.9041 65.3521 25.2616L59.9735 30.6404C62.4273 34.4834 66.7297 37.0316 71.6274 37.0316C75.2919 37.0316 78.8062 35.5759 81.3974 32.9847L89.8538 24.5283C92.445 21.9371 93.9007 18.4228 93.9007 14.7583C93.9007 7.12744 87.7147 0.941406 80.0838 0.941406C76.4193 0.941406 72.905 2.39711 70.3138 4.98828L47.4213 27.8808Z" fill="white"/>
</g>
<defs>
<clipPath id="clip0_2735_19299">
<rect width="93.8346" height="36.0902" fill="white" transform="translate(0.0625 0.941406)"/>
</clipPath>
</defs>
</svg>
