<svg width="145" height="35" viewBox="0 0 145 35" fill="none" xmlns="http://www.w3.org/2000/svg">
<g clipPath="url(#clip0_2735_19302)">
<path fill-rule="evenodd" clip-rule="evenodd" d="M9.47863 3.06641V34.9414H0.945312V3.06641H9.47863Z" fill="white"/>
<path fill-rule="evenodd" clip-rule="evenodd" d="M13.7422 3.06641H31.8755C37.7666 3.06641 42.5422 7.82338 42.5422 13.6914C42.5422 19.5595 37.7666 24.3164 31.8755 24.3164H22.2755V34.9414H13.7422V3.06641ZM22.2755 15.8164H31.8755C33.0538 15.8164 34.0089 14.865 34.0089 13.6914C34.0089 12.5178 33.0538 11.5664 31.8755 11.5664H22.2755V15.8164Z" fill="white"/>
<path fill-rule="evenodd" clip-rule="evenodd" d="M74.5489 3.06641V19.5352C74.5489 23.3494 77.653 26.4414 81.4822 26.4414C85.3115 26.4414 88.4157 23.3494 88.4157 19.5352V3.06641H96.9492V19.5352C96.9492 28.0438 90.0244 34.9414 81.4822 34.9414C72.9402 34.9414 66.0156 28.0438 66.0156 19.5352V3.06641H74.5489Z" fill="white"/>
<path fill-rule="evenodd" clip-rule="evenodd" d="M45.7443 17.9414C45.7443 9.72616 52.4301 3.06641 60.6776 3.06641H62.8109V11.5664H60.6776C57.1429 11.5664 54.2776 14.4206 54.2776 17.9414V19.0039C54.2776 27.8059 47.1141 34.9414 38.2776 34.9414H37.2109V26.4414H38.2776C42.4013 26.4414 45.7443 23.1115 45.7443 19.0039V17.9414Z" fill="white"/>
<path d="M144.947 4.12891C144.947 5.88932 143.514 7.31641 141.746 7.31641C139.979 7.31641 138.547 5.88932 138.547 4.12891C138.547 2.3685 139.979 0.941406 141.746 0.941406C143.514 0.941406 144.947 2.3685 144.947 4.12891Z" fill="white"/>
<path d="M106.109 34.9404L110.181 17.9558L113.208 28.1738C115.013 34.2682 123.679 34.2682 125.485 28.1738L128.512 17.9558L132.584 34.9404H141.356L134.954 8.233C133.431 1.88175 124.446 1.64659 122.59 7.9095L119.347 18.8612L116.102 7.90951C114.247 1.64663 105.261 1.88172 103.738 8.23299L97.3359 34.9404H106.109Z" fill="white"/>
</g>
<defs>
<clipPath id="clip0_2735_19302">
<rect width="144" height="34" fill="white" transform="translate(0.945312 0.941406)"/>
</clipPath>
</defs>
</svg>
