<svg width="74" height="38" viewBox="0 0 74 38" fill="none" xmlns="http://www.w3.org/2000/svg">
<g clipPath="url(#clip0_2735_19309)">
<path d="M61.4313 28.4963C55.7408 28.4963 51.3982 24.0779 51.3982 18.687C51.3982 13.333 55.7787 8.91554 61.4313 8.91554C67.1597 8.91554 71.5023 13.3709 71.5023 18.687C71.5023 24.0779 67.1218 28.4954 61.4313 28.4954V28.4963ZM61.4313 23.5158C64.1651 23.5158 66.1862 21.345 66.1862 18.7249C66.1862 16.1038 64.1651 13.9321 61.4313 13.9321C58.6984 13.9321 56.7143 16.1038 56.7143 18.724C56.7143 21.345 58.6984 23.5158 61.4313 23.5158ZM38.8614 37.0316C34.5188 37.0316 31.1868 35.1225 29.5023 31.6776L33.9197 29.2822C34.7435 30.8918 36.2782 32.1649 38.7865 32.1649C41.9317 32.1649 44.0647 29.9561 44.0647 26.3246V25.9871C43.0541 27.2602 41.2578 28.2337 38.6367 28.2337C33.4325 28.2337 29.2776 24.1907 29.2776 18.687C29.2776 13.333 33.6202 8.95344 39.3107 8.95344C45.1131 8.95344 49.3817 13.1083 49.3817 18.687V26.1748C49.3817 32.764 44.8884 37.0316 38.8614 37.0316ZM39.2358 23.2172C41.8938 23.2172 43.9907 21.2322 43.9907 18.5751C43.9907 15.9161 41.8938 13.97 39.2358 13.97C36.6147 13.97 34.5188 15.917 34.5188 18.5751C34.5188 21.2331 36.6147 23.2172 39.2358 23.2172ZM18.1041 28.4963C12.4135 28.4963 8.07098 24.0779 8.07098 18.687C8.07098 13.333 12.4505 8.91554 18.1041 8.91554C23.8316 8.91554 28.175 13.3709 28.175 18.687C28.175 24.0779 23.7946 28.4954 18.1041 28.4954V28.4963ZM18.1041 23.5158C20.837 23.5158 22.859 21.345 22.859 18.7249C22.859 16.1038 20.837 13.9321 18.1041 13.9321C15.3702 13.9321 13.3871 16.1038 13.3871 18.724C13.3871 21.345 15.3711 23.5158 18.1041 23.5158ZM-0.0078125 0.941406H5.30828V28.0091H-0.0078125V0.941406ZM73.9771 6.80607C73.9771 7.4043 73.7395 7.97803 73.3165 8.40105C72.8935 8.82406 72.3197 9.06171 71.7215 9.06171C71.1233 9.06171 70.5495 8.82406 70.1265 8.40105C69.7035 7.97803 69.4659 7.4043 69.4659 6.80607C69.4659 6.20784 69.7035 5.6341 70.1265 5.21109C70.5495 4.78808 71.1233 4.55043 71.7215 4.55043C72.3197 4.55043 72.8935 4.78808 73.3165 5.21109C73.7395 5.6341 73.9771 6.20784 73.9771 6.80607Z" fill="white"/>
</g>
<defs>
<clipPath id="clip0_2735_19309">
<rect width="73.985" height="36.0902" fill="white" transform="translate(-0.0078125 0.941406)"/>
</clipPath>
</defs>
</svg>
