<svg width="167" height="38" viewBox="0 0 167 38" fill="none" xmlns="http://www.w3.org/2000/svg">
<path opacity="0.3" d="M25.251 29.524L3.66906 14.6368C1.48199 13.1282 2.22545 9.98711 4.95267 9.24846L27.8904 3.0229C28.3763 2.84757 28.897 2.79066 29.4093 2.85688C29.9216 2.92311 30.4107 3.11056 30.8361 3.40369C31.2614 3.69681 31.6107 4.08715 31.8549 4.54231C32.0991 4.99747 32.2313 5.50432 32.2405 6.02079L30.8811 27.1324C30.7199 29.6383 27.4381 31.0325 25.251 29.524Z" fill="white"/>
<path opacity="0.6" d="M18.4069 33.2003L5.69229 8.33535C5.40164 7.76652 5.27375 7.12845 5.3227 6.49154C5.37165 5.85464 5.59555 5.24362 5.9697 4.72588C6.34386 4.20814 6.85373 3.80378 7.4431 3.55741C8.03246 3.31103 8.67842 3.23221 9.30973 3.32964L32.8731 6.96632C33.4155 7.05006 33.9304 7.26137 34.3754 7.58288C34.8202 7.90439 35.1825 8.32691 35.4323 8.81571C35.6821 9.3045 35.8124 9.8456 35.8123 10.3945C35.8121 10.9435 35.6817 11.4845 35.4319 11.9732L24.5771 33.2015C24.2856 33.7687 23.8434 34.2446 23.299 34.5767C22.7547 34.909 22.1294 35.0847 21.4916 35.0845C20.8539 35.0844 20.2286 34.9085 19.6844 34.5761C19.1401 34.2436 18.6981 33.7676 18.4069 33.2003Z" fill="white"/>
<path d="M32.1834 6.85688L20.4373 5.04395L6.01562 8.95973L11.772 20.2211L25.2517 29.5227C25.5491 29.7257 25.8762 29.8811 26.2213 29.9835L31.3413 19.9709L32.1834 6.85688Z" fill="white"/>
<path d="M91.6797 9.7644C91.6797 9.32779 91.8091 8.901 92.0517 8.53797C92.2943 8.17495 92.6391 7.892 93.0425 7.72492C93.4458 7.55784 93.8896 7.51413 94.3179 7.5993C94.746 7.68448 95.1394 7.89473 95.4481 8.20345C95.7569 8.51218 95.9671 8.90552 96.0523 9.33374C96.1374 9.76196 96.0938 10.2058 95.9267 10.6092C95.7596 11.0126 95.4766 11.3573 95.1137 11.5999C94.7506 11.8425 94.3238 11.9719 93.8872 11.9719C93.3035 11.966 92.7456 11.7315 92.3328 11.3188C91.9202 10.9061 91.6856 10.348 91.6797 9.7644ZM92.0478 13.051H95.7278V25.3145H92.0478V13.051Z" fill="white"/>
<path d="M111.616 19.1836C111.659 19.9942 111.541 20.8053 111.27 21.5702C110.998 22.3349 110.577 23.0385 110.033 23.6404C109.488 24.2422 108.83 24.7303 108.096 25.0769C107.362 25.4234 106.566 25.6214 105.755 25.6594C105.073 25.6965 104.392 25.5815 103.759 25.3227C103.127 25.0638 102.561 24.6677 102.101 24.1629V30.2212H98.4219V13.0519H102.101V14.2044C102.561 13.6997 103.128 13.3038 103.76 13.0452C104.392 12.7866 105.074 12.6717 105.755 12.709C106.566 12.7469 107.361 12.9447 108.095 13.2911C108.83 13.6375 109.488 14.1256 110.033 14.7273C110.577 15.3291 110.998 16.0325 111.27 16.7973C111.541 17.5621 111.659 18.373 111.616 19.1836ZM107.938 19.1836C107.923 18.6094 107.74 18.0523 107.41 17.5818C107.081 17.1114 106.62 16.7486 106.085 16.5389C105.55 16.3291 104.966 16.2819 104.404 16.4028C103.843 16.5237 103.329 16.8074 102.928 17.2186C102.527 17.6298 102.257 18.1502 102.15 18.7146C102.043 19.2789 102.105 19.8622 102.329 20.3914C102.552 20.9206 102.926 21.3723 103.405 21.6899C103.883 22.0074 104.445 22.1767 105.019 22.1767C105.414 22.1945 105.807 22.1286 106.174 21.9835C106.542 21.8383 106.874 21.6171 107.149 21.3345C107.425 21.0518 107.638 20.7141 107.774 20.3433C107.91 19.9727 107.965 19.5774 107.938 19.1836Z" fill="white"/>
<path d="M122.976 21.633C122.976 24.454 120.523 25.6558 117.874 25.6558C116.804 25.7527 115.73 25.5262 114.79 25.0056C113.85 24.4852 113.087 23.6946 112.602 22.7361L115.79 20.922C115.919 21.3651 116.197 21.7502 116.576 22.0129C116.956 22.2756 117.414 22.4001 117.874 22.3656C118.757 22.3656 119.198 22.0949 119.198 21.6053C119.198 20.2555 113.165 20.9677 113.165 16.7235C113.165 14.0504 115.42 12.7019 117.977 12.7019C118.936 12.6718 119.885 12.8993 120.725 13.3607C121.567 13.8222 122.269 14.5007 122.758 15.3256L119.62 17.0183C119.483 16.6963 119.254 16.4219 118.961 16.2294C118.669 16.0368 118.327 15.9347 117.977 15.9355C117.339 15.9355 116.947 16.1761 116.947 16.6225C116.943 18.03 122.976 17.0977 122.976 21.633Z" fill="white"/>
<path d="M136.421 13.0518V25.3152H132.742V24.1603C132.318 24.6691 131.777 25.0699 131.168 25.3301C130.559 25.5902 129.896 25.7022 129.234 25.6569C126.757 25.6569 124.648 23.8909 124.648 20.579V13.0518H128.327V20.0424C128.296 20.3348 128.33 20.6303 128.425 20.9085C128.52 21.1866 128.674 21.4408 128.877 21.6533C129.08 21.8657 129.327 22.0312 129.6 22.1384C129.874 22.2457 130.168 22.2919 130.461 22.274C131.81 22.274 132.747 21.4897 132.747 19.7477V13.0518H136.421Z" fill="white"/>
<path d="M157.505 17.7839V25.3148H153.826V18.1039C153.826 16.8781 153.236 16.0925 152.06 16.0925C150.833 16.0925 150.147 16.9514 150.147 18.3987V25.3148H146.467V18.1039C146.467 16.8781 145.879 16.0925 144.701 16.0925C143.475 16.0925 142.788 16.9514 142.788 18.3987V25.3148H139.109V13.0513H142.794V14.1749C143.176 13.6746 143.676 13.2778 144.25 13.0207C144.824 12.7638 145.454 12.6547 146.081 12.7036C146.71 12.6729 147.338 12.8057 147.901 13.0893C148.464 13.3729 148.944 13.7974 149.294 14.3217C149.702 13.7732 150.242 13.337 150.864 13.0541C151.486 12.7711 152.17 12.6505 152.851 12.7036C155.666 12.7085 157.505 14.7187 157.505 17.7839Z" fill="white"/>
<path d="M160.621 12.976C162.13 12.976 163.352 11.7534 163.352 10.2452C163.352 8.73704 162.13 7.5144 160.621 7.5144C159.113 7.5144 157.891 8.73704 157.891 10.2452C157.891 11.7534 159.113 12.976 160.621 12.976Z" fill="white"/>
<path d="M41.4531 7.40918H45.1331V25.3136H41.4531V7.40918ZM47.2167 19.1819C47.2128 17.8961 47.5903 16.6381 48.3016 15.5672C49.0129 14.4962 50.0261 13.6603 51.2128 13.1655C52.3995 12.6707 53.7062 12.5391 54.9678 12.7875C56.2293 13.0358 57.3888 13.6528 58.2993 14.5606C59.2099 15.4683 59.8306 16.6257 60.0829 17.8865C60.3352 19.1472 60.2078 20.4544 59.7167 21.6426C59.2256 22.8308 58.393 23.8467 57.3243 24.5614C56.2555 25.2761 54.9987 25.6577 53.713 25.6577C52.8591 25.6667 52.0119 25.5056 51.2209 25.1837C50.4301 24.8618 49.7112 24.3854 49.1064 23.7825C48.5015 23.1796 48.023 22.4622 47.6985 21.6723C47.3741 20.8824 47.2104 20.0358 47.2167 19.1819ZM56.5376 19.1819C56.5232 18.6272 56.3456 18.0892 56.027 17.635C55.7084 17.1809 55.2629 16.8307 54.7464 16.6284C54.2297 16.4261 53.665 16.3805 53.1227 16.4976C52.5803 16.6145 52.0846 16.8889 51.6973 17.2862C51.3101 17.6835 51.0487 18.1861 50.9456 18.7312C50.8426 19.2764 50.9025 19.8398 51.1181 20.3511C51.3335 20.8622 51.6951 21.2986 52.1572 21.6055C52.6194 21.9123 53.1619 22.0761 53.7166 22.0763C54.0965 22.0871 54.4746 22.019 54.8268 21.8765C55.1792 21.7341 55.4981 21.52 55.7636 21.248C56.0291 20.9762 56.2354 20.6522 56.3695 20.2966C56.5035 19.9408 56.5624 19.5613 56.5424 19.1819H56.5376ZM74.8823 13.0465V24.6977C74.8823 28.818 71.6691 30.5587 68.4077 30.5587C67.2598 30.6453 66.1101 30.4142 65.0846 29.8907C64.0593 29.3673 63.1978 28.5715 62.5948 27.5909L65.7334 25.7756C65.9868 26.2873 66.3904 26.7096 66.8902 26.9859C67.3901 27.2621 67.9622 27.3792 68.5304 27.3214C68.8931 27.3709 69.2622 27.3384 69.6106 27.2261C69.959 27.1139 70.2777 26.925 70.5433 26.6731C70.8088 26.4213 71.0144 26.1131 71.1449 25.7711C71.2754 25.4292 71.3275 25.0623 71.2973 24.6977V23.5692C70.8664 24.0962 70.318 24.5148 69.6961 24.7916C69.0742 25.0684 68.396 25.1957 67.716 25.1632C66.0973 25.1128 64.5617 24.4344 63.4345 23.2716C62.3073 22.1088 61.6769 20.5529 61.6769 18.9334C61.6769 17.3138 62.3073 15.758 63.4345 14.5952C64.5617 13.4323 66.0973 12.7539 67.716 12.7036C68.396 12.6711 69.0742 12.7983 69.6961 13.0752C70.318 13.352 70.8664 13.7706 71.2973 14.2977V13.0465H74.8823ZM71.3021 18.9328C71.3265 18.3405 71.1729 17.7545 70.8615 17.2501C70.55 16.7457 70.0948 16.3459 69.5543 16.1023C69.0139 15.8587 68.4129 15.7823 67.8287 15.883C67.2445 15.9837 66.7038 16.2568 66.276 16.6672C65.8482 17.0777 65.553 17.6067 65.4283 18.1861C65.3036 18.7658 65.3551 19.3693 65.5762 19.9194C65.7972 20.4695 66.1778 20.9408 66.6689 21.2728C67.16 21.6048 67.7392 21.7824 68.3319 21.7828C68.7184 21.8098 69.1064 21.7558 69.4708 21.6241C69.8352 21.4924 70.168 21.2858 70.4478 21.0177C70.7275 20.7496 70.9481 20.4259 71.0952 20.0675C71.2424 19.709 71.3129 19.3237 71.3021 18.9365V18.9328ZM76.9659 19.1735C76.9619 17.8877 77.3394 16.6297 78.0508 15.5588C78.7621 14.4877 79.7753 13.6519 80.9619 13.1571C82.1487 12.6623 83.4554 12.5307 84.717 12.779C85.9785 13.0274 87.1378 13.6444 88.0485 14.5522C88.959 15.4599 89.5798 16.6173 89.8321 17.8781C90.0843 19.1388 89.9569 20.446 89.4659 21.6342C88.9748 22.8224 88.1422 23.8382 87.0735 24.5529C86.0047 25.2676 84.7479 25.6492 83.4621 25.6492C82.609 25.6583 81.7625 25.4974 80.9722 25.176C80.1818 24.8547 79.4632 24.379 78.8586 23.777C78.2538 23.175 77.7752 22.4587 77.4502 21.6697C77.1252 20.8808 76.9606 20.035 76.9659 19.1819V19.1735ZM86.2868 19.1735C86.2726 18.6185 86.095 18.08 85.7765 17.6254C85.4578 17.1709 85.0121 16.8205 84.4953 16.6179C83.9784 16.4153 83.4133 16.3697 82.8706 16.4868C82.328 16.6037 81.8318 16.8782 81.4445 17.2757C81.057 17.6733 80.7953 18.1763 80.6923 18.7217C80.5892 19.2672 80.6494 19.831 80.8651 20.3424C81.0809 20.8539 81.4427 21.2904 81.9052 21.5974C82.3679 21.9043 82.9107 22.0679 83.4658 22.0679C83.8446 22.0779 84.2212 22.0097 84.5724 21.8673C84.9236 21.725 85.2415 21.5116 85.5064 21.2407C85.7712 20.9698 85.9773 20.647 86.1115 20.2927C86.2459 19.9384 86.3056 19.5602 86.2868 19.1819V19.1735Z" fill="white"/>
</svg>
