<svg width="30" height="30" viewBox="0 0 30 30" fill="none" xmlns="http://www.w3.org/2000/svg">
<path d="M14.9406 2.33315e-06C13.9723 0.000427067 13.083 0.534632 12.6279 1.38934C12.1728 2.24406 12.2259 3.28005 12.7661 4.08372L13.8857 2.96568C13.8487 2.85414 13.83 2.73735 13.8304 2.61984C13.8304 2.00933 14.3253 1.51442 14.9358 1.51442C15.5464 1.51442 16.0413 2.00933 16.0413 2.61984C16.0413 3.23034 15.5464 3.72525 14.9358 3.72525C14.8189 3.72551 14.7026 3.70685 14.5916 3.66998L13.4735 4.78803C14.4046 5.4195 15.6349 5.38605 16.5303 4.70492C17.4256 4.02378 17.7862 2.84705 17.4261 1.78124C17.066 0.715424 16.0656 -0.00149248 14.9406 2.33315e-06Z" fill="white"/>
<path d="M13.8938 7.63517C13.8955 6.75019 13.6089 5.88873 13.0773 5.18115L11.6245 6.6324C12.0789 7.46343 11.9154 8.49636 11.2266 9.14643L12.0161 11.0762C13.186 10.3227 13.8932 9.0267 13.8938 7.63517Z" fill="white"/>
<path d="M9.83388 9.71834H9.79598C8.90486 9.71842 8.11224 9.15202 7.82364 8.30892C7.53505 7.46583 7.81431 6.53252 8.51855 5.98649C9.2228 5.44047 10.1962 5.40251 10.9409 5.89203L12.3795 4.45341C10.9806 3.31931 9.00512 3.23183 7.51146 4.23783C6.01781 5.24383 5.35634 7.10734 5.88146 8.82992C6.40659 10.5525 7.99514 11.7301 9.79598 11.7318C10.0738 11.7319 10.351 11.7044 10.6235 11.6497L9.83388 9.71834Z" fill="white"/>
<path d="M14.9929 11.3874C14.0836 11.3865 13.1791 11.5189 12.3083 11.7806L13.4595 14.5931C13.9607 14.4689 14.4751 14.4063 14.9913 14.4067C17.9828 14.4076 20.5572 16.5214 21.1402 19.4556C21.7231 22.3898 20.1523 25.3272 17.3883 26.4715C14.6244 27.6159 11.4369 26.6485 9.77515 24.161C8.11338 21.6735 8.44008 18.3586 10.5555 16.2433C10.9969 15.8033 11.5008 15.4308 12.0509 15.1379L10.9124 12.3333C6.66825 14.4118 4.65881 19.3436 6.24178 23.7964C7.82475 28.2491 12.4964 30.8058 17.1001 29.7389C21.7038 28.672 24.7746 24.321 24.2376 19.6259C23.7005 14.9307 19.7266 11.3856 15.0008 11.3858L14.9929 11.3874Z" fill="white"/>
</svg>
