<svg width="34" height="34" viewBox="0 0 34 34" fill="none" xmlns="http://www.w3.org/2000/svg">
<g clipPath="url(#clip0_2735_18680)">
<path d="M10.3893 6.15389C5.07682 6.15389 1.00781 13.068 1.00781 20.3792C1.00781 24.956 3.22135 27.8466 6.93229 27.8466C9.60156 27.8466 11.5221 26.5901 14.9401 20.62C14.9401 20.62 16.3659 18.107 17.3424 16.3752L19.3737 12.9377C21.099 10.275 22.5247 8.94686 24.2174 8.94686C27.7331 8.94686 30.5456 14.1226 30.5456 20.4833C30.5456 22.9052 29.7513 24.3114 28.1042 24.3114C26.5286 24.3114 25.7734 23.2698 22.7786 18.4521L20.0247 20.8544C23.1432 26.0758 24.8815 27.8466 28.0326 27.8466C31.6458 27.8466 33.6576 24.9104 33.6576 20.2359C33.6576 12.5732 29.4974 6.14087 24.4388 6.14087C21.763 6.14087 19.6667 8.1591 17.7721 10.7177L15.6693 13.8036C13.5924 16.9937 12.3294 18.9924 12.3294 18.9924C9.5625 23.3349 8.60547 24.3049 7.0625 24.3049C5.47396 24.3049 4.53646 22.9117 4.53646 20.4312C4.53646 15.1187 7.1862 9.68905 10.3438 9.68905L10.3893 6.15389Z" fill="white"/>
<path d="M17.9479 13.1195L15.6693 13.8226C13.5925 17.0127 12.3294 19.0114 12.3294 19.0114C9.5625 23.3539 8.60547 24.3239 7.0625 24.3239C5.47396 24.3239 4.53646 22.9307 4.53646 20.4502C4.53646 15.1377 7.1862 9.70803 10.3438 9.70803L10.3893 6.15986C5.07682 6.15335 1.00781 13.0674 1.00781 20.3786C1.00781 24.9554 3.22135 27.8461 6.93229 27.8461C9.60156 27.8461 11.5221 26.5895 14.9401 20.6195C14.9401 20.6195 16.3659 18.1065 17.3425 16.3747L17.9479 13.1195Z" fill="white"/>
<path d="M20.0247 20.8604C23.1432 26.0817 24.8815 27.846 28.0326 27.846L28.1042 24.3109C26.5286 24.3109 25.7734 23.2757 22.7786 18.458C20.2656 14.3695 18.9831 12.3252 17.7721 10.7301C15.168 7.41634 12.9935 6.15332 10.3893 6.15332L10.3438 9.7015C12.056 9.7015 13.4818 10.6911 15.6693 13.8226C16.5872 15.1117 18.4687 18.1781 20.0247 20.8604Z" fill="white"/>
<path d="M17.7643 10.7301C15.1602 7.41634 12.9857 6.15332 10.375 6.15332C7.80339 6.15332 5.52474 7.77441 3.85156 10.2744L6.36458 12.846C7.41276 10.9515 8.82552 9.70801 10.3424 9.70801C12.0547 9.70801 13.4674 10.6846 15.6549 13.8161L17.7643 10.7301Z" fill="white"/>
<path d="M21.7578 23.5947C23.8997 26.7132 25.5143 27.846 28.0339 27.846C31.6471 27.846 33.6589 24.9098 33.6589 20.2354L30.5469 20.4827C30.5469 22.9046 29.7526 24.3109 28.1055 24.3109C26.8359 24.3109 26.0938 23.6338 24.2773 20.8343L21.7578 23.5947Z" fill="white"/>
</g>
<defs>
<clipPath id="clip0_2735_18680">
<rect width="33.3333" height="33.3333" fill="white" transform="translate(0.664062 0.333008)"/>
</clipPath>
</defs>
</svg>
