<svg width="33" height="33" viewBox="0 0 33 33" fill="none" xmlns="http://www.w3.org/2000/svg">
<g clipPath="url(#clip0_2735_18662)">
<path d="M17.4034 0.666687C8.63296 0.666687 3.96875 6.28694 3.96875 12.4152C3.96875 15.2573 5.55682 18.8015 8.09894 19.9256C8.48495 20.0996 8.69496 20.0256 8.78097 19.6675C8.85697 19.3955 9.19098 18.0855 9.35299 17.4674C9.40299 17.2694 9.37699 17.0974 9.21699 16.9114C8.37295 15.9354 7.70292 14.1573 7.70292 12.4892C7.70292 8.21503 11.1011 4.06484 16.8833 4.06484C21.8836 4.06484 25.3817 7.31299 25.3817 11.9592C25.3817 17.2094 22.6036 20.8416 18.9934 20.8416C16.9953 20.8416 15.5073 19.2735 15.9793 17.3334C16.5493 15.0233 17.6674 12.5392 17.6674 10.8731C17.6674 9.37908 16.8233 8.14302 15.0993 8.14302C13.0652 8.14302 11.4151 10.1571 11.4151 12.8612C11.4151 14.5793 12.0231 15.7394 12.0231 15.7394C12.0231 15.7394 10.011 23.8677 9.637 25.3858C9.00498 27.9559 9.72301 32.1181 9.78501 32.4761C9.82301 32.6741 10.045 32.7361 10.169 32.5741C10.367 32.3141 12.7991 28.844 13.4812 26.3358C13.7292 25.4218 14.7472 21.7156 14.7472 21.7156C15.4173 22.9257 17.3514 23.9397 19.4114 23.9397C25.5397 23.9397 29.9679 18.5535 29.9679 11.8692C29.9459 5.4609 24.4617 0.666687 17.4034 0.666687Z" fill="white"/>
</g>
<defs>
<clipPath id="clip0_2735_18662">
<rect width="32" height="32" fill="white" transform="translate(0.96875 0.666687)"/>
</clipPath>
</defs>
</svg>
