<svg width="32" height="36" viewBox="0 0 32 36" fill="none" xmlns="http://www.w3.org/2000/svg">
<path d="M16.2824 36H16.2719C10.83 35.9636 6.64638 34.1927 3.83548 30.7351C1.33324 27.6585 0.0433557 23.3777 0 18.013V17.987C0.0433557 12.621 1.33324 8.34142 3.83548 5.26492C6.64506 1.80728 10.83 0.0363085 16.2706 0H16.2916C20.4633 0.0272314 23.9534 1.08638 26.6657 3.14523C29.2153 5.08088 31.0096 7.83968 32 11.3466L28.9001 12.1997C27.2227 6.26063 22.9775 3.22433 16.281 3.17635C11.8597 3.20747 8.51677 4.57914 6.34289 7.25244C4.30695 9.75588 3.25478 13.3717 3.21668 17.9987C3.25609 22.6271 4.30817 26.2428 6.34289 28.7451C8.51677 31.4184 11.8597 32.7899 16.281 32.8211C20.2662 32.7925 22.9038 31.876 25.0974 29.755C27.6009 27.3345 27.555 24.3656 26.7538 22.5597C26.2822 21.4953 25.4257 20.6085 24.2711 19.9369C23.981 21.962 23.328 23.6059 22.3193 24.8441C20.9742 26.497 19.067 27.4007 16.6527 27.529C14.8256 27.6262 13.0655 27.1998 11.6994 26.3272C10.0838 25.2952 9.13802 23.716 9.03685 21.8803C8.93832 20.0952 9.65556 18.4538 11.0557 17.2584C12.3942 16.1163 14.2765 15.446 16.5003 15.3228C18.1396 15.2321 19.6724 15.3034 21.0897 15.5368C20.9019 14.4232 20.5211 13.5403 19.9536 12.9024C19.1733 12.0247 17.9662 11.5761 16.3676 11.5657H16.323C15.0397 11.5657 13.2966 11.9132 12.1853 13.5441L9.51489 11.7718C11.0018 9.5899 13.4174 8.3894 16.3216 8.3894H16.3872C21.2434 8.41923 24.1345 11.3505 24.4222 16.4702C24.5876 16.539 24.7493 16.6101 24.9095 16.6841C27.1753 17.7356 28.8317 19.3277 29.7012 21.2879C30.9124 24.0208 31.0239 28.4741 27.3474 32.0263C24.5391 34.7411 21.1292 35.9663 16.2914 35.9987H16.2809L16.2822 36H16.2824ZM17.8062 18.4628C17.4384 18.4628 17.0653 18.4732 16.6844 18.4952C13.8932 18.6508 12.1541 19.9123 12.2526 21.7091C12.3564 23.5916 14.4606 24.4666 16.4821 24.359C18.3433 24.2604 20.7656 23.5461 21.1714 18.7933C20.1442 18.5769 19.0147 18.4627 17.8062 18.4627V18.4628Z" fill="white"/>
</svg>
