<svg width="32" height="33" viewBox="0 0 32 33" fill="none" xmlns="http://www.w3.org/2000/svg">
<g clipPath="url(#clip0_2735_18670)">
<path d="M30.017 8.69104C28.1908 8.69104 26.5058 8.08604 25.1526 7.06542C23.6008 5.89542 22.4858 4.17917 22.092 2.20104C21.9945 1.71229 21.942 1.20792 21.937 0.69104H16.7201V14.946L16.7139 22.7542C16.7139 24.8417 15.3545 26.6117 13.4701 27.2342C12.9233 27.4148 12.3326 27.5004 11.7176 27.4667C10.9326 27.4235 10.197 27.1867 9.55764 26.8042C8.19702 25.9904 7.27452 24.5142 7.24952 22.8254C7.21014 20.186 9.34389 18.0342 11.9814 18.0342C12.502 18.0342 13.002 18.1192 13.4701 18.2735V14.3773V12.9767C12.9764 12.9035 12.4739 12.8654 11.9658 12.8654C9.07889 12.8654 6.37889 14.0654 4.44889 16.2273C2.99014 17.861 2.11514 19.9454 1.98014 22.131C1.80327 25.0023 2.85389 27.7317 4.89139 29.7454C5.19077 30.041 5.50514 30.3154 5.83389 30.5685C7.58077 31.9129 9.71639 32.6417 11.9658 32.6417C12.4739 32.6417 12.9764 32.6042 13.4701 32.531C15.5714 32.2198 17.5101 31.2579 19.0401 29.7454C20.9201 27.8873 21.9589 25.4204 21.9701 22.7948L21.9433 11.1348C22.8401 11.8267 23.8208 12.3992 24.8733 12.8435C26.5101 13.5342 28.2458 13.8842 30.032 13.8835V10.0954V8.68979C30.0333 8.69104 30.0183 8.69104 30.017 8.69104Z" fill="white"/>
</g>
<defs>
<clipPath id="clip0_2735_18670">
<rect width="32" height="32" fill="white" transform="translate(0 0.666687)"/>
</clipPath>
</defs>
</svg>
