<svg width="30" height="30" viewBox="0 0 30 30" fill="none" xmlns="http://www.w3.org/2000/svg">
<path fill-rule="evenodd" clip-rule="evenodd" d="M20.7976 18.5795L23.6903 15.6868V6.30681H10.3949V18.5795H14.4858V21.6477L17.554 18.5795H20.7976ZM19.176 23.0941C18.7923 23.4776 18.2719 23.6931 17.7294 23.6932H14.4858C14.4858 23.6932 12.4695 25.7096 11.2678 26.9111C11.1963 26.9826 11.1052 27.0313 11.006 27.051C10.9068 27.0708 10.804 27.0606 10.7106 27.0219C10.6171 26.9832 10.5373 26.9177 10.4811 26.8336C10.4249 26.7495 10.3949 26.6507 10.3949 26.5495V23.6932H6.30398C6.03273 23.6932 5.7726 23.5854 5.5808 23.3936C5.389 23.2018 5.28125 22.9417 5.28125 22.6704V9.19954C5.28119 8.93089 5.33409 8.66487 5.43693 8.41668C5.53976 8.1685 5.69052 7.94302 5.88057 7.75315C6.65528 6.97807 7.99812 5.63554 8.77284 4.86047C9.15658 4.47691 9.67692 4.26141 10.2195 4.26135H24.7131C24.9843 4.26135 25.2444 4.3691 25.4362 4.5609C25.628 4.7527 25.7358 5.01284 25.7358 5.28408V16.1105C25.7357 16.3817 25.6279 16.6418 25.4361 16.8336C24.3546 17.915 20.639 21.6307 19.176 23.0941Z" fill="white"/>
<path d="M15 8.86365H17.0455V13.9773H15V8.86365Z" fill="white"/>
<path d="M19.6016 8.86328H21.647V13.9769H19.6016V8.86328Z" fill="white"/>
</svg>
