<svg width="32" height="24" viewBox="0 0 32 24" fill="none" xmlns="http://www.w3.org/2000/svg">
<path d="M25.8175 0.714844H6.18331C5.39867 0.714844 4.62173 0.869455 3.89687 1.16984C3.17201 1.47023 2.51345 1.9105 1.95881 2.46551C1.40417 3.02051 0.964332 3.67936 0.664425 4.40442C0.364517 5.12948 0.21042 5.90653 0.210939 6.69116V17.3096C0.21042 18.0942 0.364517 18.8713 0.664425 19.5963C0.964332 20.3214 1.40417 20.9802 1.95881 21.5352C2.51345 22.0902 3.17201 22.5305 3.89687 22.8309C4.62173 23.1313 5.39867 23.2859 6.18331 23.2859H25.8175C26.6022 23.2859 27.3791 23.1313 28.104 22.8309C28.8288 22.5305 29.4874 22.0902 30.042 21.5352C30.5967 20.9802 31.0365 20.3214 31.3364 19.5963C31.6363 18.8713 31.7904 18.0942 31.7899 17.3096V6.69116C31.7904 5.90653 31.6363 5.12948 31.3364 4.40442C31.0365 3.67936 30.5967 3.02051 30.042 2.46551C29.4874 1.9105 28.8288 1.47023 28.104 1.16984C27.3791 0.869455 26.6022 0.714844 25.8175 0.714844ZM11.8399 16.8398V7.1609L20.1609 12.0004L11.8399 16.8398Z" fill="white"/>
</svg>
