<svg width="20" height="20" viewBox="0 0 20 20" fill="none" xmlns="http://www.w3.org/2000/svg">
<g clipPath="url(#clip0_2703_10562)">
<path d="M17.5 15.625C17.2113 15.625 16.9409 15.6958 16.6968 15.813L15.2802 14.3964C16.2744 13.2031 16.875 11.6711 16.875 10C16.875 8.32886 16.2744 6.79688 15.2802 5.60364L16.6968 4.18701C16.9409 4.3042 17.2113 4.375 17.5 4.375C18.5339 4.375 19.375 3.53394 19.375 2.5C19.375 1.46606 18.5339 0.625 17.5 0.625C16.4661 0.625 15.625 1.46606 15.625 2.5C15.625 2.7887 15.6958 3.05908 15.813 3.30322L14.3964 4.71985C13.2031 3.72559 11.6711 3.125 10 3.125C8.32886 3.125 6.79688 3.72559 5.60364 4.71985L4.18701 3.30322C4.3042 3.05908 4.375 2.7887 4.375 2.5C4.375 1.46606 3.53394 0.625 2.5 0.625C1.46606 0.625 0.625 1.46606 0.625 2.5C0.625 3.53394 1.46606 4.375 2.5 4.375C2.7887 4.375 3.05908 4.3042 3.30322 4.18701L4.71985 5.60364C3.72559 6.79688 3.125 8.32886 3.125 10C3.125 11.6711 3.72559 13.2031 4.71985 14.3964L3.30322 15.813C3.05908 15.6958 2.7887 15.625 2.5 15.625C1.46606 15.625 0.625 16.4661 0.625 17.5C0.625 18.5339 1.46606 19.375 2.5 19.375C3.53394 19.375 4.375 18.5339 4.375 17.5C4.375 17.2113 4.3042 16.9409 4.18701 16.6968L5.60364 15.2802C6.79688 16.2744 8.32886 16.875 10 16.875C11.6711 16.875 13.2031 16.2744 14.3964 15.2802L15.813 16.6968C15.6958 16.9409 15.625 17.2113 15.625 17.5C15.625 18.5339 16.4661 19.375 17.5 19.375C18.5339 19.375 19.375 18.5339 19.375 17.5C19.375 16.4661 18.5339 15.625 17.5 15.625ZM17.5 1.875C17.8448 1.875 18.125 2.15515 18.125 2.5C18.125 2.84485 17.8448 3.125 17.5 3.125C17.3309 3.125 17.1777 3.05603 17.0654 2.94678C17.063 2.94434 17.063 2.94189 17.0605 2.93945C17.0581 2.93701 17.0557 2.93701 17.0532 2.93457C16.944 2.82227 16.875 2.66907 16.875 2.5C16.875 2.15515 17.1552 1.875 17.5 1.875ZM1.875 2.5C1.875 2.15515 2.15515 1.875 2.5 1.875C2.84485 1.875 3.125 2.15515 3.125 2.5C3.125 2.66907 3.05603 2.82227 2.94678 2.93457C2.94434 2.93701 2.94189 2.93701 2.93945 2.93945C2.93701 2.94189 2.93701 2.94434 2.93457 2.94678C2.82227 3.05603 2.66907 3.125 2.5 3.125C2.15515 3.125 1.875 2.84485 1.875 2.5ZM2.5 18.125C2.15515 18.125 1.875 17.8448 1.875 17.5C1.875 17.1552 2.15515 16.875 2.5 16.875C2.66907 16.875 2.82227 16.944 2.93457 17.0532C2.93701 17.0557 2.93701 17.0581 2.93945 17.0605C2.94189 17.063 2.94434 17.063 2.94678 17.0654C3.05603 17.1777 3.125 17.3309 3.125 17.5C3.125 17.8448 2.84485 18.125 2.5 18.125ZM4.375 10C4.375 6.89819 6.89819 4.375 10 4.375C13.1018 4.375 15.625 6.89819 15.625 10C15.625 13.1018 13.1018 15.625 10 15.625C6.89819 15.625 4.375 13.1018 4.375 10ZM17.5 18.125C17.1552 18.125 16.875 17.8448 16.875 17.5C16.875 17.3309 16.944 17.1777 17.0532 17.0654C17.0557 17.063 17.0581 17.063 17.0605 17.0605C17.063 17.0581 17.063 17.0557 17.0654 17.0532C17.1777 16.944 17.3309 16.875 17.5 16.875C17.8448 16.875 18.125 17.1552 18.125 17.5C18.125 17.8448 17.8448 18.125 17.5 18.125ZM10 10C11.3788 10 12.5 8.87878 12.5 7.5C12.5 6.12122 11.3788 5 10 5C8.62122 5 7.5 6.12122 7.5 7.5C7.5 8.87878 8.62122 10 10 10ZM10 6.25C10.6891 6.25 11.25 6.81091 11.25 7.5C11.25 8.18909 10.6891 8.75 10 8.75C9.31091 8.75 8.75 8.18909 8.75 7.5C8.75 6.81091 9.31091 6.25 10 6.25ZM13.125 13.75C13.125 14.0955 12.8455 14.375 12.5 14.375C12.1545 14.375 11.875 14.0955 11.875 13.75C11.875 12.7161 11.0339 11.875 10 11.875C8.96606 11.875 8.125 12.7161 8.125 13.75C8.125 14.0955 7.84546 14.375 7.5 14.375C7.15454 14.375 6.875 14.0955 6.875 13.75C6.875 12.027 8.27698 10.625 10 10.625C11.723 10.625 13.125 12.027 13.125 13.75Z" fill="white"/>
</g>
<defs>
<clipPath id="clip0_2703_10562">
<rect width="20" height="20" fill="white"/>
</clipPath>
</defs>
</svg>
