<svg width="20" height="23" viewBox="0 0 20 23" fill="none" xmlns="http://www.w3.org/2000/svg">
<path d="M14.4842 12.3669C14.8495 12.2364 15.0947 11.8876 15.0947 11.4999C15.0947 11.1121 14.8495 10.7634 14.4857 10.6329L12.8132 10.0299C11.1617 9.43514 9.87323 8.14589 9.27773 6.49439L8.67473 4.82189C8.54348 4.45814 8.19548 4.21289 7.80923 4.21289C7.42223 4.21289 7.07348 4.45739 6.94148 4.82189L6.33923 6.49439C5.74373 8.14664 4.45523 9.43514 2.80298 10.0299L1.13198 10.6329C0.766734 10.7641 0.521484 11.1121 0.521484 11.4999C0.521484 11.8876 0.766735 12.2356 1.13048 12.3669L2.80298 12.9699C4.45448 13.5646 5.74298 14.8531 6.33848 16.5054L6.94148 18.1786C7.07273 18.5424 7.42148 18.7869 7.80849 18.7869C8.19548 18.7869 8.54423 18.5416 8.67473 18.1779L9.27773 16.5054C9.87248 14.8539 11.1617 13.5654 12.8132 12.9699L14.4842 12.3669ZM12.3047 11.5584C10.231 12.3054 8.61323 13.9231 7.86623 15.9969L7.80773 16.1589L7.74923 15.9969C7.00148 13.9231 5.38373 12.3054 3.31073 11.5584L3.14948 11.4999L3.31148 11.4414C5.38523 10.6944 7.00298 9.07664 7.74998 7.00289L7.80849 6.84089L7.86698 7.00289C8.61398 9.07664 10.2317 10.6944 12.3047 11.4414L12.4667 11.4999L12.3047 11.5584Z" fill="white"/>
<path d="M11.9109 5.09725L12.7577 5.4025C13.4904 5.6665 14.0612 6.238 14.3252 6.97L14.6297 7.816C14.7489 8.1475 15.0654 8.37025 15.4172 8.37025C15.7689 8.37025 16.0862 8.1475 16.2047 7.81675L16.5099 6.97C16.7739 6.23725 17.3454 5.66575 18.0774 5.4025L18.9249 5.09725C19.2542 4.978 19.4769 4.66225 19.4777 4.312C19.4784 3.96175 19.2579 3.6445 18.9249 3.523L18.0774 3.21775C17.3454 2.95375 16.7739 2.38225 16.5099 1.65025L16.2047 0.8035C16.0854 0.472 15.7697 0.25 15.4179 0.25C15.0654 0.25 14.7489 0.47275 14.6304 0.8035L14.3252 1.65025C14.0612 2.383 13.4897 2.95375 12.7577 3.21775L11.9087 3.52375C11.5787 3.64375 11.3567 3.961 11.3574 4.312C11.3582 4.663 11.5809 4.97875 11.9109 5.09725ZM15.4179 2.84125C15.7734 3.45025 16.2782 3.955 16.8864 4.30975C16.2774 4.66525 15.7727 5.17 15.4179 5.77825C15.0624 5.17 14.5577 4.6645 13.9494 4.30975C14.5577 3.95425 15.0624 3.4495 15.4179 2.84125Z" fill="white"/>
<path d="M18.923 17.9024L18.0762 17.5971C17.3442 17.3331 16.7727 16.7616 16.5087 16.0296L16.2035 15.1829C16.0842 14.8521 15.7677 14.6294 15.416 14.6294C15.0635 14.6294 14.747 14.8521 14.6285 15.1829L14.3232 16.0296C14.0592 16.7624 13.4877 17.3339 12.7557 17.5971L11.9097 17.9016C11.579 18.0201 11.3562 18.3366 11.3555 18.6876C11.3547 19.0386 11.576 19.3559 11.909 19.4766L12.7557 19.7819C13.4885 20.0459 14.06 20.6166 14.3232 21.3494L14.6277 22.1954C14.7477 22.5269 15.0642 22.7496 15.4167 22.7496C15.7692 22.7496 16.0857 22.5269 16.2042 22.1961L16.5095 21.3494C16.7735 20.6174 17.345 20.0459 18.077 19.7819L18.9275 19.4759C19.2567 19.3551 19.478 19.0386 19.4772 18.6876C19.4765 18.3366 19.253 18.0216 18.923 17.9024ZM15.4167 20.1584C15.0612 19.5494 14.5565 19.0446 13.9482 18.6899C14.5565 18.3344 15.062 17.8296 15.4167 17.2214C15.7722 17.8296 16.277 18.3351 16.8852 18.6899C16.277 19.0454 15.7715 19.5501 15.4167 20.1584Z" fill="white"/>
</svg>
