<svg width="20" height="20" viewBox="0 0 20 20" fill="none" xmlns="http://www.w3.org/2000/svg">
<g clipPath="url(#clip0_2651_8859)">
<path d="M4.16797 17.5V4.16667C4.16797 3.72464 4.34356 3.30072 4.65612 2.98816C4.96868 2.67559 5.39261 2.5 5.83464 2.5H14.168C14.61 2.5 15.0339 2.67559 15.3465 2.98816C15.659 3.30072 15.8346 3.72464 15.8346 4.16667V17.5L13.3346 15.8333L11.668 17.5L10.0013 15.8333L8.33464 17.5L6.66797 15.8333L4.16797 17.5Z" stroke="white" strokeWidth="1.25" strokeLinecap="round" strokeLinejoin="round"/>
<path d="M12.5 7.50016C12.5 7.05814 12.3244 6.63421 12.0118 6.32165C11.6993 6.00909 11.2754 5.8335 10.8333 5.8335C10.3913 5.8335 9.96738 6.00909 9.65482 6.32165C9.34226 6.63421 9.16667 7.05814 9.16667 7.50016V10.8335C9.16667 11.2755 8.99107 11.6994 8.67851 12.012C8.36595 12.3246 7.94203 12.5002 7.5 12.5002H12.5" stroke="white" strokeWidth="1.25" strokeLinecap="round" strokeLinejoin="round"/>
<path d="M7.5 10H10.8333" stroke="white" strokeWidth="1.25" strokeLinecap="round" strokeLinejoin="round"/>
</g>
<defs>
<clipPath id="clip0_2651_8859">
<rect width="20" height="20" fill="white"/>
</clipPath>
</defs>
</svg>
