<svg width="25" height="24" viewBox="0 0 25 24" fill="none" xmlns="http://www.w3.org/2000/svg">
<path d="M5.16516 22.2639C6.83884 22.2166 8.16516 20.8113 8.11779 19.1218C8.07042 17.5113 6.77568 16.2166 5.16516 16.1692C3.49147 16.1218 2.08621 17.4481 2.03884 19.1218C1.99147 20.8113 3.302 22.2008 4.99147 22.2639H5.16516Z" fill="white"/>
<path d="M11.7965 21.6637C11.7965 21.8689 11.7807 22.0584 11.7649 22.2637H15.3649C15.3649 22.0584 15.3965 21.8689 15.3965 21.6637C15.3491 14.6689 9.71225 9.00049 2.7333 8.95312C2.52804 8.95312 2.33856 8.96891 2.1333 8.9847V12.6005C2.33856 12.5847 2.52804 12.5689 2.7333 12.5689C7.72277 12.6005 11.7491 16.6584 11.7965 21.6637Z" fill="white"/>
<path d="M2.7333 1.7373C2.52804 1.7373 2.33856 1.76888 2.1333 1.76888V5.36888C2.33856 5.36888 2.52804 5.3373 2.7333 5.3373C11.6859 5.38467 18.9333 12.6636 18.9807 21.6478C18.9807 21.8531 18.9649 22.0426 18.9491 22.2478H22.5333C22.5333 22.0426 22.5649 21.8531 22.5649 21.6478C22.5333 10.6741 13.6754 1.76888 2.7333 1.7373Z" fill="white"/>
</svg>
