<svg width="27" height="24" viewBox="0 0 27 24" fill="none" xmlns="http://www.w3.org/2000/svg">
<g clipPath="url(#clip0_2483_2118)">
<path d="M6.10775 1.99411C9.10007 4.25468 12.3186 8.83818 13.5003 11.298C14.6821 8.83836 17.9005 4.25464 20.8929 1.99411C23.052 0.362968 26.5503 -0.899115 26.5503 3.1169C26.5503 3.91895 26.0934 9.85456 25.8254 10.8182C24.8937 14.1684 21.4989 15.0229 18.4791 14.5057C23.7576 15.4097 25.1004 18.4042 22.2005 21.3987C16.6929 27.0858 14.2845 19.9718 13.6671 18.1489C13.554 17.8147 13.501 17.6584 13.5003 17.7913C13.4995 17.6584 13.4466 17.8147 13.3334 18.1489C12.7163 19.9718 10.3079 27.086 4.80008 21.3987C1.9001 18.4042 3.24285 15.4096 8.52144 14.5057C5.50158 15.0229 2.10669 14.1684 1.17519 10.8182C0.907161 9.85447 0.450195 3.91886 0.450195 3.1169C0.450195 -0.899115 3.94859 0.362968 6.10759 1.99411H6.10775Z" fill="#1185FE"/>
</g>
<defs>
<clipPath id="clip0_2483_2118">
<rect width="27" height="24" fill="white"/>
</clipPath>
</defs>
</svg>
