<svg width="14" height="15" viewBox="0 0 14 15" fill="none" xmlns="http://www.w3.org/2000/svg">
<g clipPath="url(#clip0_2109_5041)">
<path d="M14 7.58691C14 11.0809 11.4401 13.9769 8.09375 14.5019V9.61035H9.7248L10.0352 7.58691H8.09375V6.27387C8.09375 5.72016 8.365 5.18066 9.23453 5.18066H10.1172V3.45801C10.1172 3.45801 9.31602 3.32129 8.55012 3.32129C6.95133 3.32129 5.90625 4.29035 5.90625 6.04473V7.58691H4.12891V9.61035H5.90625V14.5019C2.55992 13.9769 0 11.0809 0 7.58691C0 3.72105 3.13414 0.586914 7 0.586914C10.8659 0.586914 14 3.72105 14 7.58691Z" fill="#1877F2"/>
<path d="M9.7248 9.61035L10.0352 7.58691H8.09375V6.27384C8.09375 5.72027 8.36495 5.18066 9.2345 5.18066H10.1172V3.45801C10.1172 3.45801 9.31613 3.32129 8.55025 3.32129C6.9513 3.32129 5.90625 4.29035 5.90625 6.04473V7.58691H4.12891V9.61035H5.90625V14.5018C6.26265 14.5578 6.62791 14.5869 7 14.5869C7.37209 14.5869 7.73735 14.5578 8.09375 14.5018V9.61035H9.7248Z" fill="white"/>
</g>
<defs>
<clipPath id="clip0_2109_5041">
<rect width="14" height="14" fill="white" transform="translate(0 0.586914)"/>
</clipPath>
</defs>
</svg>
