<svg width="24" height="25" viewBox="0 0 24 25" fill="none" xmlns="http://www.w3.org/2000/svg">
<g opacity="0.6" clipPath="url(#clip0_2261_1014)">
<path d="M9 15.5L15 9.5" stroke="white" strokeWidth="1.5" strokeLinecap="round" strokeLinejoin="round"/>
<path d="M11 6.50024L11.4631 5.96426C12.401 5.02662 13.673 4.49991 14.9994 4.5C16.3257 4.50009 17.5977 5.02698 18.5355 5.96476C19.4733 6.90253 20.0001 8.17437 20 9.50049C19.9999 10.8266 19.4729 12.0984 18.535 13.036L18.0009 13.5" stroke="white" strokeWidth="1.5" strokeLinecap="round" strokeLinejoin="round"/>
<path d="M13 18.5013L12.603 19.0354C11.6543 19.9737 10.3738 20.5 9.03956 20.5C7.70529 20.5 6.42485 19.9737 5.47612 19.0354C5.00848 18.5729 4.63723 18.0222 4.38385 17.4152C4.13047 16.8082 4 16.157 4 15.4992C4 14.8415 4.13047 14.1902 4.38385 13.5832C4.63723 12.9762 5.00848 12.4256 5.47612 11.9631L6.00011 11.5" stroke="white" strokeWidth="1.5" strokeLinecap="round" strokeLinejoin="round"/>
</g>
<defs>
<clipPath id="clip0_2261_1014">
<rect width="24" height="24" fill="white" transform="translate(0 0.5)"/>
</clipPath>
</defs>
</svg>
