<svg width="20" height="21" viewBox="0 0 20 21" fill="none" xmlns="http://www.w3.org/2000/svg">
<g clipPath="url(#clip0_2109_5290)">
<path d="M2.5 9.66667C2.5 10.5421 2.67244 11.4091 3.00747 12.2179C3.3425 13.0267 3.83356 13.7617 4.45262 14.3807C5.07168 14.9998 5.80661 15.4908 6.61544 15.8259C7.42428 16.1609 8.29119 16.3333 9.16667 16.3333C10.0421 16.3333 10.9091 16.1609 11.7179 15.8259C12.5267 15.4908 13.2617 14.9998 13.8807 14.3807C14.4998 13.7617 14.9908 13.0267 15.3259 12.2179C15.6609 11.4091 15.8333 10.5421 15.8333 9.66667C15.8333 8.79119 15.6609 7.92428 15.3259 7.11544C14.9908 6.30661 14.4998 5.57168 13.8807 4.95262C13.2617 4.33356 12.5267 3.8425 11.7179 3.50747C10.9091 3.17244 10.0421 3 9.16667 3C8.29119 3 7.42428 3.17244 6.61544 3.50747C5.80661 3.8425 5.07168 4.33356 4.45262 4.95262C3.83356 5.57168 3.3425 6.30661 3.00747 7.11544C2.67244 7.92428 2.5 8.79119 2.5 9.66667Z" stroke="white" strokeWidth="1.5" strokeLinecap="round" strokeLinejoin="round"/>
<path d="M17.5013 18.0003L14.168 14.667" stroke="white" strokeWidth="1.5" strokeLinecap="round" strokeLinejoin="round"/>
</g>
<defs>
<clipPath id="clip0_2109_5290">
<rect width="20" height="20" fill="white" transform="translate(0 0.5)"/>
</clipPath>
</defs>
</svg>
