<svg width="20" height="20" viewBox="0 0 20 20" fill="none" xmlns="http://www.w3.org/2000/svg">
<g clipPath="url(#clip0_2109_5201)">
<path d="M9.50844 2.77577C9.81285 2.60454 10.1845 2.60454 10.489 2.77577L16.1556 5.96327C16.4705 6.14039 16.6654 6.47357 16.6654 6.83485V13.1652C16.6654 13.5264 16.4705 13.8596 16.1556 14.0367L10.489 17.2242C10.1845 17.3955 9.81285 17.3955 9.50844 17.2242L3.84177 14.0367C3.52689 13.8596 3.33203 13.5264 3.33203 13.1652V6.83485C3.33203 6.47357 3.52689 6.14039 3.84177 5.96327L9.50844 2.77577Z" stroke="white" strokeWidth="1.5" strokeLinecap="round" strokeLinejoin="round"/>
<path d="M10.5 10L15.5 7" stroke="white" strokeWidth="1.5" strokeLinecap="round" strokeLinejoin="round"/>
<path d="M10 10V16.5" stroke="white" strokeWidth="1.5" strokeLinecap="round" strokeLinejoin="round"/>
<path d="M9.5 10L4.5 7" stroke="white" strokeWidth="1.5" strokeLinecap="round" strokeLinejoin="round"/>
<path d="M13.3346 4.375L6.66797 8.125" stroke="white" strokeWidth="1.5" strokeLinecap="round" strokeLinejoin="round"/>
</g>
<defs>
<clipPath id="clip0_2109_5201">
<rect width="20" height="20" fill="white"/>
</clipPath>
</defs>
</svg>
