<svg width="20" height="20" viewBox="0 0 20 20" fill="none" xmlns="http://www.w3.org/2000/svg">
<g clipPath="url(#clip0_2109_5197)">
<path fill-rule="evenodd" clip-rule="evenodd" d="M15.1437 0.833008C15.5857 0.833008 16.0096 1.0086 16.3222 1.32117L18.6792 3.67818C18.9917 3.99075 19.1673 4.41467 19.1673 4.8567V16.6663C19.1673 18.0471 18.0481 19.1663 16.6673 19.1663H3.33399C1.95328 19.1663 0.833984 18.0471 0.833984 16.6663V3.33301C0.833984 1.9523 1.95328 0.833008 3.33399 0.833008H15.1437ZM3.33399 2.49968C2.87375 2.49968 2.50065 2.87278 2.50065 3.33301V16.6663C2.50065 17.1266 2.87375 17.4997 3.33399 17.4997H4.16732V12.4997C4.16732 11.1189 5.28661 9.99968 6.66732 9.99968H13.334C14.7147 9.99968 15.834 11.1189 15.834 12.4997V17.4997H16.6673C17.1276 17.4997 17.5007 17.1266 17.5007 16.6663V5.69003C17.5007 5.248 17.3251 4.82408 17.0125 4.51152L15.4888 2.98783C15.1762 2.67527 14.7523 2.49968 14.3103 2.49968H14.1673V4.16634C14.1673 5.54705 13.0481 6.66634 11.6673 6.66634H8.33399C6.95328 6.66634 5.83399 5.54705 5.83399 4.16634V2.49968H3.33399ZM14.1673 17.4997V12.4997C14.1673 12.0394 13.7942 11.6663 13.334 11.6663H6.66732C6.20709 11.6663 5.83399 12.0394 5.83399 12.4997V17.4997H14.1673ZM7.50065 2.49968H12.5007V4.16634C12.5007 4.62658 12.1276 4.99968 11.6673 4.99968H8.33399C7.87375 4.99968 7.50065 4.62658 7.50065 4.16634V2.49968Z" fill="white"/>
</g>
<defs>
<clipPath id="clip0_2109_5197">
<rect width="20" height="20" fill="white"/>
</clipPath>
</defs>
</svg>
