<svg width="20" height="20" viewBox="0 0 20 20" fill="none" xmlns="http://www.w3.org/2000/svg">
<path d="M10.5007 8C10.1554 8 9.8755 8.31342 9.8755 8.70006V12.6103L9.06723 11.7053C8.82309 11.432 8.42726 11.432 8.18312 11.7053C7.93896 11.9787 7.93896 12.4219 8.18312 12.6954L10.058 14.795C10.302 15.0682 10.6975 15.0684 10.9417 14.7955L12.8169 12.7C13.061 12.4267 13.061 11.9833 12.8169 11.71C12.5728 11.4366 12.177 11.4366 11.9328 11.71L11.1258 12.6136V8.70006C11.1258 8.31342 10.8459 8 10.5007 8Z" fill="white"/>
<path fill-rule="evenodd" clip-rule="evenodd" d="M16.875 2C18.0486 2 19 2.97684 19 4.18182V7.09091C19 8.29589 18.0486 9.27273 16.875 9.27273H15.4583V15.8182C15.4583 17.0232 14.507 18 13.3333 18H7.66667C6.49306 18 5.54167 17.0232 5.54167 15.8182V9.27273H4.125C2.9514 9.27273 2 8.29589 2 7.09091V4.18182C2 2.97684 2.9514 2 4.125 2H16.875ZM17.5833 7.09091C17.5833 7.49257 17.2662 7.81818 16.875 7.81818H15.4583V6.36364H16.1667C16.5579 6.36364 16.875 6.03803 16.875 5.63636C16.875 5.23471 16.5579 4.90909 16.1667 4.90909H4.83333C4.44213 4.90909 4.125 5.23471 4.125 5.63636C4.125 6.03803 4.44213 6.36364 4.83333 6.36364H5.54167V7.81818H4.125C3.7338 7.81818 3.41667 7.49257 3.41667 7.09091V4.18182C3.41667 3.78016 3.7338 3.45455 4.125 3.45455H16.875C17.2662 3.45455 17.5833 3.78016 17.5833 4.18182V7.09091ZM6.95833 6.36364V15.8182C6.95833 16.2199 7.27547 16.5455 7.66667 16.5455H13.3333C13.7245 16.5455 14.0417 16.2199 14.0417 15.8182V6.36364H6.95833Z" fill="white"/>
</svg>
