<svg width="19" height="16" viewBox="0 0 19 16" fill="none" xmlns="http://www.w3.org/2000/svg">
<path d="M15.7493 8.41683C15.7493 7.26683 16.6827 6.3335 17.8327 6.3335V5.50016C17.8327 2.16683 16.9993 1.3335 13.666 1.3335H5.33268C1.99935 1.3335 1.16602 2.16683 1.16602 5.50016V5.91683C2.31602 5.91683 3.24935 6.85016 3.24935 8.00016C3.24935 9.15016 2.31602 10.0835 1.16602 10.0835V10.5002C1.16602 13.8335 1.99935 14.6668 5.33268 14.6668H13.666C16.9993 14.6668 17.8327 13.8335 17.8327 10.5002C16.6827 10.5002 15.7493 9.56683 15.7493 8.41683Z" stroke="white" strokeWidth="1.5" strokeLinecap="round" strokeLinejoin="round"/>
<path d="M7.83398 1.3335V14.6668" stroke="white" strokeWidth="1.5" strokeLinecap="round" strokeLinejoin="round" stroke-dasharray="166.67 166.67"/>
</svg>
