<svg width="20" height="20" viewBox="0 0 20 20" fill="none" xmlns="http://www.w3.org/2000/svg">
<g clipPath="url(#clip0_2109_5210)">
<path d="M4.16761 11.5834V18.3334C4.16761 18.5544 4.25541 18.7664 4.41169 18.9227C4.56797 19.0789 4.77993 19.1667 5.00094 19.1667H8.33428C8.55529 19.1667 8.76725 19.0789 8.92353 18.9227C9.07981 18.7664 9.16761 18.5544 9.16761 18.3334V12.1817L12.9618 14.0834C13.0892 14.1471 13.2308 14.177 13.373 14.1704C13.5153 14.1638 13.6535 14.1208 13.7744 14.0456C13.8953 13.9704 13.995 13.8654 14.0638 13.7407C14.1327 13.6161 14.1684 13.4758 14.1676 13.3334V1.66673C14.1677 1.52467 14.1314 1.38494 14.0623 1.26084C13.9932 1.13673 13.8935 1.03235 13.7726 0.95762C13.6518 0.88289 13.5139 0.840289 13.372 0.833861C13.2301 0.827434 13.0889 0.857394 12.9618 0.920896L8.13761 3.3334H5.00094C3.96765 3.33236 2.97083 3.7153 2.204 4.40787C1.43716 5.10045 0.955027 6.05325 0.851183 7.08132C0.747338 8.10938 1.02919 9.13935 1.64204 9.97129C2.25488 10.8032 3.15498 11.3778 4.16761 11.5834ZM7.50094 17.5001H5.83428V11.6667H7.50094V17.5001ZM5.00094 5.00006H8.33428C8.46355 5.00018 8.59108 4.97023 8.70678 4.91256L12.5009 3.01506V11.9851L8.70761 10.0876C8.70011 10.0876 8.69094 10.0876 8.68344 10.0826C8.57642 10.0301 8.45925 10.0017 8.34011 9.99923H5.00094C4.34591 9.98727 3.72176 9.71866 3.26275 9.2512C2.80375 8.78374 2.54658 8.15478 2.54658 7.49965C2.54658 6.84451 2.80375 6.21555 3.26275 5.74809C3.72176 5.28063 4.34591 5.01202 5.00094 5.00006ZM19.1676 7.50006C19.1676 8.38412 18.8164 9.23196 18.1913 9.85709C17.5662 10.4822 16.7183 10.8334 15.8343 10.8334C15.6133 10.8334 15.4013 10.7456 15.245 10.5893C15.0887 10.433 15.0009 10.2211 15.0009 10.0001C15.0009 9.77905 15.0887 9.56709 15.245 9.41081C15.4013 9.25453 15.6133 9.16673 15.8343 9.16673C16.2763 9.16673 16.7002 8.99113 17.0128 8.67857C17.3253 8.36601 17.5009 7.94209 17.5009 7.50006C17.5009 7.05804 17.3253 6.63411 17.0128 6.32155C16.7002 6.00899 16.2763 5.8334 15.8343 5.8334C15.6133 5.8334 15.4013 5.7456 15.245 5.58932C15.0887 5.43304 15.0009 5.22108 15.0009 5.00006C15.0009 4.77905 15.0887 4.56709 15.245 4.41081C15.4013 4.25453 15.6133 4.16673 15.8343 4.16673C16.7183 4.16673 17.5662 4.51792 18.1913 5.14304C18.8164 5.76816 19.1676 6.61601 19.1676 7.50006Z" fill="white"/>
</g>
<defs>
<clipPath id="clip0_2109_5210">
<rect width="20" height="20" fill="white"/>
</clipPath>
</defs>
</svg>
