<svg width="24" height="24" viewBox="0 0 24 24" fill="none" xmlns="http://www.w3.org/2000/svg">
<g clipPath="url(#clip0_2483_2301)">
<path d="M9.48404 2.50488C9.13029 2.79356 8.83173 3.1439 8.60279 3.53895L1.04467 16.5739C0.540238 17.4499 0.402926 18.4898 0.662722 19.4666C0.922518 20.4435 1.55831 21.2778 2.43123 21.7874C3.30715 22.2918 4.34709 22.4291 5.32391 22.1693C6.30074 21.9095 7.13507 21.2737 7.64467 20.4008L14.1411 9.1977C12.7076 7.13988 10.6165 4.13848 9.48404 2.50488Z" fill="#FEBD00"/>
<path d="M4.34496 22.3022C6.45176 22.3022 8.15965 20.5943 8.15965 18.4875C8.15965 16.3807 6.45176 14.6729 4.34496 14.6729C2.23817 14.6729 0.530273 16.3807 0.530273 18.4875C0.530273 20.5943 2.23817 22.3022 4.34496 22.3022Z" fill="#25A84A"/>
<path d="M16.1282 20.4096C17.1816 22.2341 19.5146 22.8592 21.3391 21.8058C23.1635 20.7524 23.7886 18.4194 22.7352 16.5949L15.2013 3.54606C14.1479 1.72158 11.8149 1.09649 9.99039 2.14988C8.1659 3.20328 7.54081 5.53626 8.59421 7.36075L16.1282 20.4096Z" fill="#2E8ADD"/>
</g>
<defs>
<clipPath id="clip0_2483_2301">
<rect width="24" height="24" fill="white"/>
</clipPath>
</defs>
</svg>
