<svg width="25" height="24" viewBox="0 0 25 24" fill="none" xmlns="http://www.w3.org/2000/svg">
<g clipPath="url(#clip0_2483_2221)">
<path d="M23.76 9.91355L13.9707 9.91309C13.5384 9.91309 13.188 10.2634 13.188 10.6957V13.823C13.188 14.2552 13.5384 14.6056 13.9706 14.6056H19.4834C18.8797 16.1722 17.753 17.4842 16.3156 18.3178L18.6662 22.387C22.4369 20.2062 24.6662 16.3799 24.6662 12.0965C24.6662 11.4866 24.6213 11.0506 24.5314 10.5597C24.463 10.1867 24.1392 9.91355 23.76 9.91355Z" fill="#167EE6"/>
<path d="M12.6668 19.3037C9.96893 19.3037 7.61374 17.8297 6.34882 15.6484L2.27979 17.9938C4.35049 21.5826 8.22958 23.9994 12.6668 23.9994C14.8435 23.9994 16.8974 23.4133 18.6668 22.3919V22.3863L16.3161 18.3171C15.2409 18.9408 13.9967 19.3037 12.6668 19.3037Z" fill="#12B347"/>
<path d="M18.6665 22.3922V22.3866L16.3159 18.3174C15.2406 18.941 13.9965 19.304 12.6665 19.304V23.9996C14.8432 23.9996 16.8973 23.4135 18.6665 22.3922Z" fill="#0F993E"/>
<path d="M5.36216 12.0003C5.36216 10.6705 5.72507 9.42637 6.34855 8.3512L2.27952 6.00586C1.25254 7.76962 0.666504 9.81797 0.666504 12.0003C0.666504 14.1826 1.25254 16.2309 2.27952 17.9947L6.34855 15.6494C5.72507 14.5742 5.36216 13.3301 5.36216 12.0003Z" fill="#FFD500"/>
<path d="M12.6668 4.69566C14.426 4.69566 16.042 5.32078 17.3042 6.36061C17.6156 6.61711 18.0682 6.59859 18.3534 6.31336L20.5692 4.09758C20.8928 3.77395 20.8698 3.24422 20.5241 2.94431C18.4093 1.10967 15.6577 0 12.6668 0C8.22958 0 4.35049 2.41673 2.27979 6.00558L6.34882 8.35092C7.61374 6.16969 9.96893 4.69566 12.6668 4.69566Z" fill="#FF4B26"/>
<path d="M17.3039 6.36061C17.6153 6.61711 18.068 6.59859 18.3531 6.31336L20.5689 4.09758C20.8925 3.77395 20.8694 3.24422 20.5238 2.94431C18.409 1.10963 15.6575 0 12.6665 0V4.69566C14.4257 4.69566 16.0417 5.32078 17.3039 6.36061Z" fill="#D93F21"/>
</g>
<defs>
<clipPath id="clip0_2483_2221">
<rect width="24" height="24" fill="white" transform="translate(0.666504)"/>
</clipPath>
</defs>
</svg>
