<svg width="14" height="15" viewBox="0 0 14 15" fill="none" xmlns="http://www.w3.org/2000/svg">
<g clipPath="url(#clip0_2109_5045)">
<path d="M7 14.5869C10.866 14.5869 14 11.4529 14 7.58691C14 3.72092 10.866 0.586914 7 0.586914C3.13401 0.586914 0 3.72092 0 7.58691C0 11.4529 3.13401 14.5869 7 14.5869Z" fill="url(#paint0_linear_2109_5045)"/>
<path d="M8.48715 3.69824H5.51604C4.1907 3.69824 3.11426 4.77469 3.11426 6.10002V9.07113C3.11426 10.3965 4.1907 11.4729 5.51604 11.4729H8.48715C9.81248 11.4729 10.8889 10.3965 10.8889 9.07113V6.10002C10.8889 4.77469 9.81248 3.69824 8.48715 3.69824ZM10.0209 9.07424C10.0209 9.92046 9.33337 10.6111 8.48404 10.6111H5.51292C4.6667 10.6111 3.97604 9.92358 3.97604 9.07424V6.10313C3.97604 5.25691 4.66359 4.56624 5.51292 4.56624H8.48404C9.33026 4.56624 10.0209 5.2538 10.0209 6.10313V9.07424Z" fill="white"/>
<path d="M6.99972 5.59912C5.90461 5.59912 5.01172 6.49201 5.01172 7.58712C5.01172 8.68223 5.90461 9.57512 6.99972 9.57512C8.09483 9.57512 8.98772 8.68223 8.98772 7.58712C8.98772 6.49201 8.09483 5.59912 6.99972 5.59912ZM6.99972 8.79423C6.33394 8.79423 5.79261 8.2529 5.79261 7.58712C5.79261 6.92134 6.33394 6.38001 6.99972 6.38001C7.6655 6.38001 8.20683 6.92134 8.20683 7.58712C8.20683 8.2529 7.6655 8.79423 6.99972 8.79423Z" fill="white"/>
<path d="M9.13935 5.81702C9.3225 5.78733 9.44691 5.61479 9.41722 5.43163C9.38753 5.24848 9.21498 5.12407 9.03183 5.15376C8.84867 5.18345 8.72426 5.356 8.75396 5.53915C8.78365 5.72231 8.95619 5.84671 9.13935 5.81702Z" fill="white"/>
</g>
<defs>
<linearGradient id="paint0_linear_2109_5045" x1="1.67001" y1="12.9169" x2="11.6178" y2="2.96912" gradientUnits="userSpaceOnUse">
<stop stop-color="#FEE411"/>
<stop offset="0.0518459" stop-color="#FEDB16"/>
<stop offset="0.1381" stop-color="#FEC125"/>
<stop offset="0.2481" stop-color="#FE983D"/>
<stop offset="0.3762" stop-color="#FE5F5E"/>
<stop offset="0.5" stop-color="#FE2181"/>
<stop offset="1" stop-color="#9000DC"/>
</linearGradient>
<clipPath id="clip0_2109_5045">
<rect width="14" height="14" fill="white" transform="translate(0 0.586914)"/>
</clipPath>
</defs>
</svg>
