<svg width="27" height="27" viewBox="0 0 27 27" fill="none" xmlns="http://www.w3.org/2000/svg">
<path d="M25 14.2667V12.7333H14.2667V10.4333H16.95C17.2549 10.433 17.5472 10.3117 17.7628 10.0961C17.9784 9.88054 18.0997 9.58823 18.1 9.28333V3.15C18.0997 2.8451 17.9784 2.5528 17.7628 2.3372C17.5472 2.12161 17.2549 2.00034 16.95 2H10.05C9.7451 2.00034 9.4528 2.12161 9.2372 2.3372C9.02161 2.5528 8.90034 2.8451 8.9 3.15V9.28333C8.90034 9.58823 9.02161 9.88054 9.2372 10.0961C9.4528 10.3117 9.7451 10.433 10.05 10.4333H12.7333V12.7333H2V14.2667H5.83333V16.5667H3.21665C2.91176 16.567 2.61946 16.6883 2.40387 16.9039C2.18828 17.1195 2.06701 17.4117 2.06665 17.7167V23.85C2.06701 24.1549 2.18828 24.4472 2.40387 24.6628C2.61946 24.8784 2.91176 24.9997 3.21665 25H10.05C10.3549 24.9997 10.6472 24.8784 10.8628 24.6628C11.0784 24.4472 11.1997 24.1549 11.2 23.85V17.7167C11.1997 17.4117 11.0784 17.1195 10.8628 16.9039C10.6472 16.6883 10.3549 16.567 10.05 16.5667H7.36667V14.2667H19.6333V16.5667H16.95C16.6451 16.567 16.3528 16.6883 16.1372 16.9039C15.9216 17.1195 15.8003 17.4117 15.8 17.7167V23.85C15.8003 24.1549 15.9216 24.4472 16.1372 24.6628C16.3528 24.8784 16.6451 24.9997 16.95 25H23.85C24.1549 24.9997 24.4472 24.8784 24.6628 24.6628C24.8784 24.4472 24.9997 24.1549 25 23.85V17.7167C24.9997 17.4117 24.8784 17.1195 24.6628 16.9039C24.4472 16.6883 24.1549 16.567 23.85 16.5667H21.1667V14.2667H25ZM10.4333 3.53333H16.5667V8.9H10.4333V3.53333ZM9.66667 23.4667H3.59998V18.1H9.66667V23.4667ZM23.4667 23.4667H17.3333V18.1H23.4667V23.4667Z" fill="white"/>
</svg>
