<svg width="20" height="20" viewBox="0 0 20 20" fill="none" xmlns="http://www.w3.org/2000/svg">
<g clipPath="url(#clip0_2483_7352)">
<path d="M8.3335 6.66683V5.00016C8.3335 4.55814 8.50909 4.13421 8.82165 3.82165C9.13421 3.50909 9.55814 3.3335 10.0002 3.3335H15.8335C16.2755 3.3335 16.6994 3.50909 17.012 3.82165C17.3246 4.13421 17.5002 4.55814 17.5002 5.00016V15.0002C17.5002 15.4422 17.3246 15.8661 17.012 16.1787C16.6994 16.4912 16.2755 16.6668 15.8335 16.6668H10.0002C9.55814 16.6668 9.13421 16.4912 8.82165 16.1787C8.50909 15.8661 8.3335 15.4422 8.3335 15.0002V13.3335" stroke="white" strokeWidth="1.25" strokeLinecap="round" strokeLinejoin="round"/>
<path d="M12.5 10H2.5L5 7.5" stroke="white" strokeWidth="1.25" strokeLinecap="round" strokeLinejoin="round"/>
<path d="M5 12.5L2.5 10" stroke="white" strokeWidth="1.25" strokeLinecap="round" strokeLinejoin="round"/>
</g>
<defs>
<clipPath id="clip0_2483_7352">
<rect width="20" height="20" fill="white"/>
</clipPath>
</defs>
</svg>
