<svg width="25" height="24" viewBox="0 0 25 24" fill="none" xmlns="http://www.w3.org/2000/svg">
<g clipPath="url(#clip0_2483_2344)">
<path d="M12.6153 1.86652e-06C11.8406 0.000341654 11.1292 0.427705 10.7651 1.11148C10.401 1.79525 10.4435 2.62404 10.8757 3.26698L11.7714 2.37254C11.7418 2.28332 11.7268 2.18988 11.7271 2.09587C11.7271 1.60747 12.1231 1.21154 12.6115 1.21154C13.0999 1.21154 13.4958 1.60747 13.4958 2.09587C13.4958 2.58427 13.0999 2.9802 12.6115 2.9802C12.5179 2.98041 12.4249 2.96548 12.3361 2.93599L11.4416 3.83043C12.1865 4.3356 13.1707 4.30884 13.887 3.76393C14.6033 3.21903 14.8917 2.27764 14.6036 1.42499C14.3156 0.572339 13.5153 -0.00119399 12.6153 1.86652e-06Z" fill="#34A853"/>
<path d="M11.7817 6.10775C11.7831 5.39976 11.5538 4.71059 11.1286 4.14453L9.96631 5.30553C10.3298 5.97035 10.199 6.7967 9.64795 7.31676L10.2796 8.86055C11.2155 8.25779 11.7813 7.22097 11.7817 6.10775Z" fill="#FBBC04"/>
<path d="M8.53361 7.77448H8.50329C7.79039 7.77454 7.1563 7.32142 6.92542 6.64694C6.69454 5.97247 6.91795 5.22582 7.48135 4.789C8.04474 4.35218 8.8235 4.32181 9.4192 4.71343L10.5701 3.56253C9.45099 2.65526 7.8706 2.58527 6.67567 3.39007C5.48075 4.19487 4.95157 5.68568 5.37168 7.06374C5.79178 8.44181 7.06261 9.38389 8.50329 9.38523C8.72558 9.38534 8.94734 9.36333 9.16527 9.31953L8.53361 7.77448Z" fill="#EA4335"/>
<path d="M12.6599 9.10966C11.9324 9.10892 11.2088 9.21491 10.5122 9.42423L11.4332 11.6742C11.8341 11.5749 12.2456 11.5248 12.6586 11.5252C15.0518 11.5258 17.1113 13.2169 17.5776 15.5642C18.044 17.9116 16.7874 20.2615 14.5762 21.177C12.365 22.0925 9.81505 21.3186 8.48564 19.3286C7.15623 17.3386 7.41759 14.6866 9.10989 12.9944C9.46302 12.6424 9.86615 12.3444 10.3063 12.1101L9.39541 9.8664C6.00013 11.5292 4.39258 15.4747 5.65895 19.0369C6.92532 22.599 10.6626 24.6444 14.3456 23.7908C18.0286 22.9373 20.4852 19.4565 20.0556 15.7004C19.6259 11.9443 16.4468 9.10822 12.6662 9.1084L12.6599 9.10966Z" fill="#4285F4"/>
</g>
<defs>
<clipPath id="clip0_2483_2344">
<rect width="24" height="24" fill="white" transform="translate(0.666504)"/>
</clipPath>
</defs>
</svg>
