<svg width="22" height="22" viewBox="0 0 22 22" fill="none" xmlns="http://www.w3.org/2000/svg">
<path d="M6.42031 3.8416C2.91406 3.8416 0.228516 8.40488 0.228516 13.2303C0.228516 16.251 1.68945 18.1588 4.13867 18.1588C5.90039 18.1588 7.16797 17.3295 9.42383 13.3893C9.42383 13.3893 10.3648 11.7307 11.0094 10.5877L12.35 8.31895C13.4887 6.56152 14.4297 5.68496 15.5469 5.68496C17.8672 5.68496 19.7234 9.10098 19.7234 13.299C19.7234 14.8975 19.1992 15.8256 18.1121 15.8256C17.0723 15.8256 16.5738 15.1381 14.5973 11.9584L12.7797 13.5439C14.8379 16.99 15.9852 18.1588 18.0648 18.1588C20.4496 18.1588 21.7773 16.2209 21.7773 13.1357C21.7773 8.07832 19.0316 3.83301 15.693 3.83301C13.927 3.83301 12.5434 5.16504 11.293 6.85371L9.90508 8.89043C8.53438 10.9959 7.70078 12.315 7.70078 12.315C5.87461 15.1811 5.24297 15.8213 4.22461 15.8213C3.17617 15.8213 2.55742 14.9018 2.55742 13.2647C2.55742 9.7584 4.30625 6.1748 6.39023 6.1748L6.42031 3.8416Z" fill="url(#paint0_linear_2274_640)"/>
<path d="M11.409 8.43906L9.90508 8.90313C8.53438 11.0086 7.70078 12.3277 7.70078 12.3277C5.87461 15.1938 5.24297 15.834 4.22461 15.834C3.17617 15.834 2.55742 14.9145 2.55742 13.2773C2.55742 9.7711 4.30625 6.1875 6.39023 6.1875L6.42031 3.84571C2.91406 3.84141 0.228516 8.40469 0.228516 13.2301C0.228516 16.2508 1.68945 18.1586 4.13867 18.1586C5.90039 18.1586 7.16797 17.3293 9.42383 13.3891C9.42383 13.3891 10.3648 11.7305 11.0094 10.5875L11.409 8.43906Z" fill="url(#paint1_linear_2274_640)"/>
<path d="M12.7781 13.5479C14.8363 16.994 15.9836 18.1585 18.0633 18.1585L18.1105 15.8253C17.0707 15.8253 16.5723 15.1421 14.5957 11.9624C12.9371 9.26396 12.0906 7.91475 11.2914 6.86201C9.57266 4.6749 8.1375 3.84131 6.41875 3.84131L6.38867 6.1831C7.51875 6.1831 8.45977 6.83623 9.90352 8.90303C10.5094 9.75381 11.7512 11.7776 12.7781 13.5479Z" fill="url(#paint2_linear_2274_640)"/>
<path d="M11.2879 6.86201C9.56914 4.6749 8.13398 3.84131 6.41094 3.84131C4.71367 3.84131 3.20977 4.91123 2.10547 6.56123L3.76406 8.2585C4.45586 7.00811 5.38828 6.1874 6.38945 6.1874C7.51953 6.1874 8.45195 6.83193 9.8957 8.89873L11.2879 6.86201Z" fill="url(#paint3_linear_2274_640)"/>
<path d="M13.9219 15.3529C15.3355 17.4111 16.4012 18.1588 18.0641 18.1588C20.4488 18.1588 21.7766 16.2209 21.7766 13.1357L19.7227 13.299C19.7227 14.8975 19.1984 15.8256 18.1113 15.8256C17.2734 15.8256 16.7836 15.3787 15.5848 13.5311L13.9219 15.3529Z" fill="url(#paint4_linear_2274_640)"/>
<defs>
<linearGradient id="paint0_linear_2274_640" x1="0.228516" y1="10.9959" x2="21.7773" y2="10.9959" gradientUnits="userSpaceOnUse">
<stop stop-color="#0064E0"/>
<stop offset="0.061763" stop-color="#006AE5"/>
<stop offset="0.2183" stop-color="#007AF4"/>
<stop offset="0.8106" stop-color="#007DF6"/>
<stop offset="1" stop-color="#0080F9"/>
</linearGradient>
<linearGradient id="paint1_linear_2274_640" x1="2.14002" y1="8.30694" x2="9.91449" y2="16.3462" gradientUnits="userSpaceOnUse">
<stop stop-color="#0064E0"/>
<stop offset="0.0134753" stop-color="#0065E1"/>
<stop offset="0.2894" stop-color="#0075F0"/>
<stop offset="0.5971" stop-color="#007FF9"/>
<stop offset="1" stop-color="#0082FC"/>
</linearGradient>
<linearGradient id="paint2_linear_2274_640" x1="4.73652" y1="2.67325" x2="17.8785" y2="16.8757" gradientUnits="userSpaceOnUse">
<stop stop-color="#0082FB"/>
<stop offset="0.0216721" stop-color="#017CF5"/>
<stop offset="0.0904785" stop-color="#0471EA"/>
<stop offset="0.1872" stop-color="#066AE3"/>
<stop offset="0.4561" stop-color="#0668E1"/>
<stop offset="0.7462" stop-color="#056AE3"/>
<stop offset="0.8847" stop-color="#0472EB"/>
<stop offset="0.9742" stop-color="#017CF5"/>
<stop offset="1" stop-color="#0082FB"/>
</linearGradient>
<linearGradient id="paint3_linear_2274_640" x1="2.10547" y1="6.37002" x2="11.2879" y2="6.37002" gradientUnits="userSpaceOnUse">
<stop stop-color="#0064E0"/>
<stop offset="0.4218" stop-color="#0069E4"/>
<stop offset="0.4332" stop-color="#0069E4"/>
<stop offset="1" stop-color="#0668E1"/>
</linearGradient>
<linearGradient id="paint4_linear_2274_640" x1="13.9226" y1="15.6473" x2="21.7766" y2="15.6473" gradientUnits="userSpaceOnUse">
<stop stop-color="#066BE3"/>
<stop offset="0.3087" stop-color="#0470E9"/>
<stop offset="0.559" stop-color="#0279F2"/>
<stop offset="1" stop-color="#0080F9"/>
</linearGradient>
</defs>
</svg>
