<svg width="24" height="24" viewBox="0 0 24 24" fill="none" xmlns="http://www.w3.org/2000/svg">
<path d="M12.0199 20.5319C9.68987 20.5319 7.35987 20.1619 5.14987 19.4219C4.30987 19.1319 3.66987 18.5419 3.38987 17.7719C3.09987 17.0019 3.19987 16.1519 3.65987 15.3919L4.80987 13.4819C5.04987 13.0819 5.26987 12.2819 5.26987 11.8119V8.92188C5.26987 5.20187 8.29987 2.17188 12.0199 2.17188C15.7399 2.17188 18.7699 5.20187 18.7699 8.92188V11.8119C18.7699 12.2719 18.9899 13.0819 19.2299 13.4919L20.3699 15.3919C20.7999 16.1119 20.8799 16.9819 20.5899 17.7719C20.4483 18.1584 20.2208 18.5077 19.9246 18.7935C19.6284 19.0793 19.2712 19.2942 18.8799 19.4219C16.6799 20.1619 14.3499 20.5319 12.0199 20.5319ZM12.0199 3.67188C9.12987 3.67188 6.76987 6.02187 6.76987 8.92188V11.8119C6.76987 12.5419 6.46987 13.6219 6.09987 14.2519L4.94987 16.1619C4.72987 16.5319 4.66987 16.9219 4.79987 17.2519C4.91987 17.5919 5.21987 17.8519 5.62987 17.9919C9.77828 19.3918 14.2715 19.3918 18.4199 17.9919C18.7799 17.8719 19.0599 17.6019 19.1899 17.2419C19.3199 16.8819 19.2899 16.4919 19.0899 16.1619L17.9399 14.2519C17.5599 13.6019 17.2699 12.5319 17.2699 11.8019V8.92188C17.2699 6.02187 14.9199 3.67188 12.0199 3.67188Z" fill="white"/>
<path d="M13.8795 3.93971C13.8095 3.93971 13.7395 3.92971 13.6695 3.90971C13.3795 3.82971 13.0995 3.76971 12.8295 3.72971C11.9795 3.61971 11.1595 3.67971 10.3895 3.90971C10.1095 3.99971 9.80953 3.90971 9.61953 3.69971C9.52486 3.59622 9.46146 3.46801 9.43668 3.32996C9.4119 3.19191 9.42676 3.04966 9.47953 2.91971C9.67863 2.40574 10.029 1.96427 10.4843 1.6536C10.9395 1.34294 11.4784 1.1777 12.0295 1.17971C13.1695 1.17971 14.1695 1.85971 14.5795 2.91971C14.6795 3.18971 14.6295 3.48971 14.4395 3.69971C14.2895 3.85971 14.0795 3.93971 13.8795 3.93971ZM12.0195 22.8087C11.0295 22.8087 10.0695 22.4087 9.36953 21.7087C8.66953 21.0087 8.26953 20.0487 8.26953 19.0587H9.76953C9.76953 19.6487 10.0095 20.2287 10.4295 20.6487C10.8495 21.0687 11.4295 21.3087 12.0195 21.3087C13.2595 21.3087 14.2695 20.2987 14.2695 19.0587H15.7695C15.7695 21.1287 14.0895 22.8087 12.0195 22.8087Z" fill="white"/>
</svg>
