<svg width="27" height="27" viewBox="0 0 27 27" fill="none" xmlns="http://www.w3.org/2000/svg">
<path d="M13.6789 12.2287C13.5664 12.2175 13.4314 12.2175 13.3077 12.2287C10.6302 12.1387 8.50391 9.945 8.50391 7.245C8.50391 4.48875 10.7314 2.25 13.4989 2.25C16.2552 2.25 18.4939 4.48875 18.4939 7.245C18.4827 9.945 16.3564 12.1387 13.6789 12.2287Z" stroke="white" strokeWidth="2" strokeLinecap="round" strokeLinejoin="round"/>
<path d="M8.05359 16.38C5.33109 18.2025 5.33109 21.1725 8.05359 22.9837C11.1473 25.0537 16.2211 25.0537 19.3148 22.9837C22.0373 21.1612 22.0373 18.1913 19.3148 16.38C16.2323 14.3213 11.1586 14.3213 8.05359 16.38Z" stroke="white" strokeWidth="2" strokeLinecap="round" strokeLinejoin="round"/>
</svg>
