<svg width="27" height="27" viewBox="0 0 27 27" fill="none" xmlns="http://www.w3.org/2000/svg">
<path d="M13.5 17.7188C11.1713 17.7188 9.28125 15.8288 9.28125 13.5C9.28125 11.1713 11.1713 9.28125 13.5 9.28125C15.8288 9.28125 17.7188 11.1713 17.7188 13.5C17.7188 15.8288 15.8288 17.7188 13.5 17.7188ZM13.5 10.9688C12.105 10.9688 10.9688 12.105 10.9688 13.5C10.9688 14.895 12.105 16.0312 13.5 16.0312C14.895 16.0312 16.0312 14.895 16.0312 13.5C16.0312 12.105 14.895 10.9688 13.5 10.9688Z" fill="white"/>
<path d="M17.1112 24.9636C16.875 24.9636 16.6388 24.9298 16.4025 24.8736C15.705 24.6823 15.12 24.2436 14.7487 23.6248L14.6137 23.3998C13.95 22.2523 13.0387 22.2523 12.375 23.3998L12.2513 23.6136C11.88 24.2436 11.295 24.6936 10.5975 24.8736C9.88875 25.0648 9.1575 24.9636 8.53875 24.5923L6.60375 23.4786C5.9175 23.0848 5.4225 22.4436 5.20875 21.6673C5.00625 20.8911 5.1075 20.0923 5.50125 19.4061C5.8275 18.8323 5.9175 18.3148 5.72625 17.9886C5.535 17.6623 5.05125 17.4711 4.3875 17.4711C2.745 17.4711 1.40625 16.1323 1.40625 14.4898V12.5098C1.40625 10.8673 2.745 9.52858 4.3875 9.52858C5.05125 9.52858 5.535 9.33733 5.72625 9.01108C5.9175 8.68483 5.83875 8.16733 5.50125 7.59358C5.1075 6.90733 5.00625 6.09733 5.20875 5.33233C5.41125 4.55608 5.90625 3.91483 6.60375 3.52108L8.55 2.40733C9.82125 1.65358 11.4975 2.09233 12.2625 3.38608L12.3975 3.61108C13.0613 4.75858 13.9725 4.75858 14.6363 3.61108L14.76 3.39733C15.525 2.09233 17.2013 1.65358 18.4837 2.41858L20.4187 3.53233C21.105 3.92608 21.6 4.56733 21.8137 5.34358C22.0162 6.11983 21.915 6.91858 21.5212 7.60483C21.195 8.17858 21.105 8.69608 21.2962 9.02233C21.4875 9.34858 21.9713 9.53983 22.635 9.53983C24.2775 9.53983 25.6163 10.8786 25.6163 12.5211V14.5011C25.6163 16.1436 24.2775 17.4823 22.635 17.4823C21.9713 17.4823 21.4875 17.6736 21.2962 17.9998C21.105 18.3261 21.1837 18.8436 21.5212 19.4173C21.915 20.1036 22.0275 20.9136 21.8137 21.6786C21.6112 22.4548 21.1162 23.0961 20.4187 23.4898L18.4725 24.6036C18.045 24.8398 17.5837 24.9636 17.1112 24.9636ZM13.5 20.8011C14.5013 20.8011 15.435 21.4311 16.0763 22.5448L16.2 22.7586C16.335 22.9948 16.56 23.1636 16.83 23.2311C17.1 23.2986 17.37 23.2648 17.595 23.1298L19.5413 22.0048C19.8338 21.8361 20.0588 21.5548 20.1488 21.2173C20.2388 20.8798 20.1937 20.5311 20.025 20.2386C19.3837 19.1361 19.305 17.9998 19.8 17.1336C20.295 16.2673 21.3188 15.7723 22.6012 15.7723C23.3213 15.7723 23.895 15.1986 23.895 14.4786V12.4986C23.895 11.7898 23.3213 11.2048 22.6012 11.2048C21.3188 11.2048 20.295 10.7098 19.8 9.84358C19.305 8.97733 19.3837 7.84108 20.025 6.73858C20.1937 6.44608 20.2388 6.09733 20.1488 5.75983C20.0588 5.42233 19.845 5.15233 19.5525 4.97233L17.6062 3.85858C17.1225 3.56608 16.4813 3.73483 16.1888 4.22983L16.065 4.44358C15.4237 5.55733 14.49 6.18733 13.4887 6.18733C12.4875 6.18733 11.5538 5.55733 10.9125 4.44358L10.7887 4.21858C10.5075 3.74608 9.8775 3.57733 9.39375 3.85858L7.4475 4.98358C7.155 5.15233 6.93 5.43358 6.84 5.77108C6.75 6.10858 6.795 6.45733 6.96375 6.74983C7.605 7.85233 7.68375 8.98858 7.18875 9.85483C6.69375 10.7211 5.67 11.2161 4.3875 11.2161C3.6675 11.2161 3.09375 11.7898 3.09375 12.5098V14.4898C3.09375 15.1986 3.6675 15.7836 4.3875 15.7836C5.67 15.7836 6.69375 16.2786 7.18875 17.1448C7.68375 18.0111 7.605 19.1473 6.96375 20.2498C6.795 20.5423 6.75 20.8911 6.84 21.2286C6.93 21.5661 7.14375 21.8361 7.43625 22.0161L9.3825 23.1298C9.61875 23.2761 9.9 23.3098 10.1587 23.2423C10.4288 23.1748 10.6538 22.9948 10.8 22.7586L10.9237 22.5448C11.565 21.4423 12.4987 20.8011 13.5 20.8011Z" fill="white"/>
</svg>
