<svg width="24" height="25" viewBox="0 0 24 25" fill="none" xmlns="http://www.w3.org/2000/svg">
<g opacity="0.6" clipPath="url(#clip0_2261_1008)">
<path d="M3 12.5C3 13.6819 3.23279 14.8522 3.68508 15.9442C4.13738 17.0361 4.80031 18.0282 5.63604 18.864C6.47177 19.6997 7.46392 20.3626 8.55585 20.8149C9.64778 21.2672 10.8181 21.5 12 21.5C13.1819 21.5 14.3522 21.2672 15.4442 20.8149C16.5361 20.3626 17.5282 19.6997 18.364 18.864C19.1997 18.0282 19.8626 17.0361 20.3149 15.9442C20.7672 14.8522 21 13.6819 21 12.5C21 11.3181 20.7672 10.1478 20.3149 9.05585C19.8626 7.96392 19.1997 6.97177 18.364 6.13604C17.5282 5.30031 16.5361 4.63738 15.4442 4.18508C14.3522 3.73279 13.1819 3.5 12 3.5C10.8181 3.5 9.64778 3.73279 8.55585 4.18508C7.46392 4.63738 6.47177 5.30031 5.63604 6.13604C4.80031 6.97177 4.13738 7.96392 3.68508 9.05585C3.23279 10.1478 3 11.3181 3 12.5Z" stroke="white" strokeWidth="1.5" strokeLinecap="round" strokeLinejoin="round"/>
<path d="M9 9.5H9.01" stroke="white" strokeWidth="1.5" strokeLinecap="round" strokeLinejoin="round"/>
<path d="M15 9.5H15.01" stroke="white" strokeWidth="1.5" strokeLinecap="round" strokeLinejoin="round"/>
<path d="M8 13.5C8 14.5609 8.42143 15.5783 9.17157 16.3284C9.92172 17.0786 10.9391 17.5 12 17.5C13.0609 17.5 14.0783 17.0786 14.8284 16.3284C15.5786 15.5783 16 14.5609 16 13.5H8Z" stroke="white" strokeWidth="1.5" strokeLinecap="round" strokeLinejoin="round"/>
</g>
<defs>
<clipPath id="clip0_2261_1008">
<rect width="24" height="24" fill="white" transform="translate(0 0.5)"/>
</clipPath>
</defs>
</svg>
