<svg width="55" height="55" viewBox="0 0 55 55" fill="none" xmlns="http://www.w3.org/2000/svg">
<g clip-path="url(#clip0_2798_39170)">
<path d="M40.4192 0.5625H14.5853C6.87308 0.5625 0.621094 6.81449 0.621094 14.5267V40.3606C0.621094 48.0728 6.87308 54.3248 14.5853 54.3248H40.4192C48.1314 54.3248 54.3834 48.0728 54.3834 40.3606V14.5267C54.3834 6.81449 48.1314 0.5625 40.4192 0.5625Z" fill="#FFFD00"/>
<path d="M46.3227 36.7528C46.0991 36.725 43.3813 36.5003 40.5813 32.887C37.7813 29.2737 38.8726 28.6296 39.0127 28.2936C39.1529 27.9577 40.9254 27.4468 42.0653 27.0054C43.803 26.3324 43.7184 25.1287 43.4381 24.4707C43.1577 23.8127 42.0097 23.223 40.4411 23.8915C38.9513 24.5298 38.3675 24.0316 38.3675 24.0316C38.3675 24.0316 38.737 18.5173 38.5354 17.4214C36.7931 7.71225 27.4999 8.51854 27.4999 8.51854C27.4999 8.51854 18.2066 7.70761 16.4643 17.4249C16.2673 18.5173 16.6322 24.0363 16.6322 24.0363C16.6322 24.0363 16.053 24.5344 14.5586 23.8961C12.99 23.223 11.842 23.8127 11.5616 24.4753C11.2813 25.138 11.1978 26.337 12.9344 27.0101C14.0743 27.4514 15.8479 27.9623 15.987 28.2983C16.126 28.6342 17.2196 29.2783 14.4184 32.8916C11.6172 36.5049 8.9006 36.7296 8.67702 36.7574C8.45343 36.7852 7.33203 36.813 7.33203 37.5684C7.33203 38.3237 7.70158 39.5795 12.2347 40.3695C12.9495 40.4935 12.8788 41.0137 12.8788 41.0137C12.8788 41.0137 12.8788 42.807 13.8311 42.9749C14.7833 43.1429 16.4643 42.5544 17.7247 42.6946C18.9851 42.8348 19.7126 42.6668 22.1778 44.6269C24.6431 46.5871 27.4999 46.4805 27.4999 46.4805C27.4999 46.4805 30.3566 46.5963 32.8219 44.6269C35.2871 42.6575 36.0146 42.8348 37.275 42.6946C38.5354 42.5544 40.2164 43.1394 41.1698 42.9715C42.1232 42.8035 42.1221 41.0102 42.1221 41.0102C42.1221 41.0102 42.0514 40.49 42.7662 40.3661C47.2993 39.576 47.6688 38.3214 47.6688 37.5649C47.6688 36.8084 46.5474 36.7806 46.3227 36.7528Z" fill="white"/>
<path d="M26.9832 9.51C27.2543 9.51 27.413 9.52275 27.413 9.52275L27.4999 9.5297L27.5844 9.52275C27.5844 9.52275 27.7443 9.51 28.0165 9.51C28.8275 9.51 30.9498 9.62585 32.9759 10.7264C35.4261 12.0528 36.9623 14.3675 37.5438 17.6031C37.6597 18.2727 37.509 21.7296 37.3619 23.9747L37.3283 24.4798L37.7129 24.8076C37.8288 24.9084 38.276 25.2351 39.0915 25.2351C39.6953 25.2184 40.2894 25.0801 40.8385 24.8285C41.1327 24.694 41.4512 24.6207 41.7745 24.613C42.2669 24.613 42.4847 24.8227 42.5102 24.8713C42.5937 25.051 42.6049 25.2559 42.5414 25.4436C42.443 25.6753 42.1452 25.8989 41.7016 26.0703C41.4004 26.1862 41.0378 26.3136 40.6879 26.4364C39.0846 26.9925 38.3895 27.2555 38.108 27.8474L38.0964 27.8637C37.9249 28.1208 37.5241 28.7209 37.7396 29.7971C37.9342 30.7691 38.6026 31.982 39.7843 33.5043C42.4812 36.9797 45.1596 37.6342 46.186 37.7512H46.1976L46.3134 37.7628C46.4455 37.7744 46.5451 37.7883 46.6181 37.8022C46.5429 37.9419 46.4347 38.0612 46.303 38.1497C45.8639 38.488 44.8653 38.9734 42.5959 39.3684C41.4374 39.5712 41.0899 40.44 41.1154 41.039C41.1073 41.3923 41.0157 41.8198 40.9173 41.9843C40.8802 41.9843 40.8339 41.9843 40.7771 41.9843C40.358 41.9657 39.9407 41.9181 39.5283 41.8418C38.9225 41.7347 38.3094 41.6743 37.6944 41.661C37.516 41.6605 37.3377 41.6698 37.1604 41.6889C37.026 41.7039 36.8904 41.7155 36.7607 41.7271C35.4586 41.8429 34.4368 42.0468 32.1905 43.8343C30.2396 45.3867 28.0096 45.4655 27.5833 45.4655H27.4095C26.9832 45.4655 24.7531 45.3867 22.8023 43.8343C20.556 42.0468 19.5342 41.8395 18.2321 41.7271C18.1023 41.7155 17.968 41.7039 17.8324 41.6889C17.655 41.6698 17.4768 41.6605 17.2984 41.661C16.6855 41.6773 16.0747 41.7404 15.4714 41.8499C15.059 41.9262 14.6417 41.9738 14.2226 41.9924C14.1659 41.9924 14.1195 41.9924 14.0824 41.9924C13.984 41.8279 13.8913 41.3992 13.8832 41.0471C13.9156 40.4493 13.5623 39.5793 12.4038 39.3765C10.1332 38.9815 9.13461 38.4961 8.69671 38.1578C8.56627 38.0689 8.45934 37.9496 8.38508 37.8103C8.45922 37.7964 8.55769 37.7825 8.68976 37.7709L8.80561 37.7593H8.81835C9.84475 37.6435 12.5255 36.9924 15.2201 33.5124C16.4017 31.989 17.0736 30.7761 17.2648 29.8053C17.4802 28.729 17.0794 28.129 16.908 27.8718L16.8964 27.8556C16.6149 27.2647 15.9233 27.0018 14.3165 26.4399C13.9689 26.3171 13.604 26.1897 13.3028 26.0738C12.8591 25.9024 12.5614 25.6788 12.4629 25.4471C12.3995 25.2607 12.4103 25.057 12.493 24.8783C12.5197 24.8261 12.7375 24.6165 13.2298 24.6165C13.5532 24.6242 13.8716 24.6975 14.1659 24.8319C14.7149 25.0835 15.3091 25.2218 15.9128 25.2386C16.7238 25.2386 17.1744 24.9119 17.2914 24.8111L17.676 24.4832L17.6424 23.9782C17.4953 21.7388 17.3412 18.2819 17.4605 17.6066C18.0398 14.3698 19.5782 12.0563 22.0284 10.7299C24.0546 9.63164 26.1722 9.51348 26.9878 9.51348M28.0165 8.50098C27.6875 8.50098 27.4999 8.51835 27.4999 8.51835C27.4999 8.51835 27.311 8.50098 26.9832 8.50098C25.0068 8.50098 17.9587 9.09411 16.4643 17.4212C16.2673 18.5136 16.6322 24.0326 16.6322 24.0326C16.6322 24.0326 16.4156 24.218 15.9082 24.218C15.441 24.2013 14.982 24.0906 14.5586 23.8924C14.139 23.7035 13.6853 23.6022 13.2252 23.5947C12.3575 23.5947 11.7539 24.0152 11.5616 24.467C11.2813 25.125 11.1978 26.3287 12.9344 27.0018C14.0743 27.4431 15.848 27.954 15.987 28.29C16.126 28.6259 17.2196 29.27 14.4184 32.8833C11.6172 36.4966 8.9006 36.7213 8.67702 36.7491C8.45343 36.7769 7.33203 36.8047 7.33203 37.5601C7.33203 38.3154 7.70158 39.5712 12.2347 40.3612C12.9495 40.4852 12.8788 41.0054 12.8788 41.0054C12.8788 41.0054 12.8788 42.7987 13.8311 42.9666C13.9616 42.9878 14.0938 42.9979 14.2261 42.9968C15.0822 42.9968 16.2789 42.6643 17.3018 42.6643C17.4431 42.6639 17.5842 42.6712 17.7247 42.6863C18.9851 42.8265 19.7126 42.6585 22.1778 44.6186C24.3894 46.3783 26.9183 46.4722 27.413 46.4722H27.5867C28.0814 46.4722 30.6092 46.3818 32.8219 44.6186C35.2871 42.6585 36.0146 42.8265 37.275 42.6863C37.4155 42.6712 37.5566 42.6639 37.6979 42.6643C38.7208 42.6643 39.9175 42.9968 40.7736 42.9968C40.9059 42.998 41.0381 42.9879 41.1687 42.9666C42.1209 42.7987 42.1209 41.0054 42.1209 41.0054C42.1209 41.0054 42.0503 40.4852 42.765 40.3612C47.2981 39.5712 47.6677 38.3165 47.6677 37.5601C47.6677 36.8036 46.5474 36.7758 46.3227 36.7491C46.098 36.7225 43.3813 36.4966 40.5813 32.8833C37.7813 29.27 38.8726 28.6259 39.0127 28.29C39.1529 27.954 40.9254 27.4431 42.0653 27.0018C43.803 26.3287 43.7185 25.125 43.4381 24.467C43.2458 24.0152 42.6422 23.5947 41.7745 23.5947C41.3144 23.6022 40.8607 23.7035 40.4411 23.8924C40.0177 24.0906 39.5587 24.2013 39.0915 24.218C38.5841 24.218 38.3675 24.0326 38.3675 24.0326C38.3675 24.0326 38.737 18.5171 38.5355 17.4212C37.041 9.0918 29.9929 8.50098 28.0165 8.50098Z" fill="black"/>
</g>
<defs>
<clipPath id="clip0_2798_39170">
<rect width="55" height="55" fill="white"/>
</clipPath>
</defs>
</svg>
