<svg width="25" height="24" viewBox="0 0 25 24" fill="none" xmlns="http://www.w3.org/2000/svg">
<g clipPath="url(#clip0_2483_2096)">
<path d="M12.3335 0C5.70631 0 0.333496 5.37281 0.333496 12C0.333496 18.6272 5.70631 24 12.3335 24C18.9607 24 24.3335 18.6272 24.3335 12C24.3335 5.37281 18.9607 0 12.3335 0Z" fill="white"/>
<path d="M12.4744 21.1095H12.4692C9.75092 21.0911 7.66118 20.1949 6.25714 18.445C5.00726 16.888 4.36296 14.7216 4.34131 12.0066V11.9935C4.36296 9.27786 5.00726 7.11205 6.25714 5.55509C7.66053 3.80525 9.75092 2.909 12.4685 2.89062H12.479C14.5628 2.90441 16.3061 3.44042 17.6609 4.48236C18.9344 5.46195 19.8306 6.85812 20.3254 8.63291L18.7769 9.06462C17.9391 6.059 15.8186 4.52239 12.4737 4.49811C10.2652 4.51386 8.59545 5.20803 7.50959 6.56094C6.49264 7.82787 5.96707 9.65778 5.94804 11.9994C5.96773 14.3417 6.49325 16.1716 7.50959 17.438C8.59545 18.7908 10.2652 19.4849 12.4737 19.5007C14.4643 19.4862 15.7818 19.0224 16.8775 17.949C18.128 16.724 18.1051 15.2216 17.7049 14.3076C17.4693 13.769 17.0415 13.3202 16.4648 12.9803C16.3198 14.0052 15.9937 14.8371 15.4898 15.4637C14.818 16.3002 13.8653 16.7576 12.6594 16.8225C11.7467 16.8717 10.8675 16.6559 10.1852 16.2143C9.37817 15.692 8.90576 14.8928 8.85523 13.9638C8.80601 13.0604 9.16428 12.2297 9.86365 11.6247C10.5322 11.0467 11.4724 10.7075 12.5832 10.6452C13.4021 10.5993 14.1677 10.6354 14.8757 10.7535C14.7818 10.1899 14.5916 9.74309 14.3082 9.42027C13.9184 8.97608 13.3154 8.74906 12.517 8.74381H12.4947C11.8536 8.74381 10.983 8.91964 10.4279 9.74501L9.09401 8.84811C9.83675 7.74387 11.0433 7.13633 12.4939 7.13633H12.5268C14.9524 7.15142 16.3965 8.63487 16.5402 11.2258C16.6228 11.2607 16.7036 11.2967 16.7836 11.3341C17.9154 11.8662 18.7428 12.672 19.1771 13.664C19.7821 15.047 19.8378 17.3008 18.0014 19.0985C16.5986 20.4724 14.8954 21.0924 12.4789 21.1088H12.4737L12.4743 21.1095H12.4744ZM13.2355 12.2343C13.0518 12.2343 12.8654 12.2395 12.6752 12.2507C11.281 12.3294 10.4123 12.9678 10.4615 13.8771C10.5133 14.8298 11.5644 15.2727 12.5742 15.2182C13.5038 15.1683 14.7138 14.8068 14.9164 12.4015C14.4034 12.292 13.8392 12.2342 13.2355 12.2342V12.2343Z" fill="black"/>
</g>
<defs>
<clipPath id="clip0_2483_2096">
<rect width="24" height="24" fill="white" transform="translate(0.333496)"/>
</clipPath>
</defs>
</svg>
