<svg width="14" height="15" viewBox="0 0 14 15" fill="none" xmlns="http://www.w3.org/2000/svg">
<g clipPath="url(#clip0_2109_5031)">
<path d="M4.97913 7.84404C3.86897 7.84404 2.9721 8.74092 2.9885 9.84014C2.99944 10.5456 3.38772 11.1581 3.95921 11.4999C3.76507 11.2019 3.65022 10.8491 3.64475 10.469C3.62835 9.36982 4.52522 8.47295 5.63538 8.47295C5.85413 8.47295 6.06467 8.5085 6.26155 8.57139V6.37021C6.05647 6.34014 5.84592 6.32373 5.63538 6.32373C5.62444 6.32373 5.61624 6.32373 5.6053 6.32373V7.94248C5.40842 7.87959 5.19788 7.84404 4.97913 7.84404Z" fill="#F00044"/>
<path d="M9.77754 1.24316H9.76113H9.19238C9.35645 2.06621 9.81855 2.78262 10.4639 3.26934C10.04 2.70879 9.78301 2.00879 9.77754 1.24316Z" fill="#F00044"/>
<path d="M13.1246 4.59287C12.9086 4.59287 12.7008 4.571 12.4957 4.53271V6.11045C11.752 6.11045 11.0301 5.96553 10.352 5.67568C9.91445 5.48975 9.50703 5.25186 9.13242 4.96475L9.14336 9.8292C9.13789 10.9229 8.70586 11.9483 7.92383 12.7222C7.28672 13.3511 6.48008 13.753 5.60508 13.8815C5.4 13.9116 5.18945 13.928 4.97891 13.928C4.04375 13.928 3.15234 13.6245 2.42773 13.064C2.50977 13.1624 2.59727 13.2581 2.69297 13.3511C3.48047 14.1276 4.525 14.5569 5.63789 14.5569C5.84844 14.5569 6.05898 14.5405 6.26406 14.5104C7.13906 14.3819 7.9457 13.98 8.58281 13.3511C9.36484 12.5772 9.79688 11.5519 9.80234 10.4581L9.76133 5.59365C10.1332 5.88076 10.5406 6.12139 10.9809 6.30459C11.6617 6.5917 12.3836 6.73936 13.1246 6.73936" fill="#F00044"/>
<path d="M2.68478 7.53506C3.46408 6.76123 4.5004 6.33193 5.60509 6.32373V5.74131C5.40001 5.71123 5.18947 5.69482 4.97892 5.69482C3.86329 5.69482 2.81603 6.12412 2.02853 6.90615C1.2547 7.67451 0.811731 8.72451 0.814466 9.81553C0.814466 10.9147 1.24923 11.9456 2.034 12.7249C2.15978 12.8479 2.28829 12.9628 2.42501 13.0667C1.80704 12.3312 1.47072 11.4124 1.46798 10.4444C1.47072 9.35342 1.91095 8.30342 2.68478 7.53506Z" fill="#08FFF9"/>
<path d="M12.4957 4.53281V3.94766H12.4902C11.7301 3.94766 11.0301 3.69609 10.4668 3.26953C10.9562 3.91484 11.6727 4.37422 12.4957 4.53281Z" fill="#08FFF9"/>
<path d="M5.52305 12.4049C5.78281 12.4186 6.03164 12.383 6.26133 12.3092C7.0543 12.0494 7.62578 11.3111 7.62578 10.4416L7.62852 7.18769V1.24316H9.19258C9.15156 1.03809 9.12969 0.830273 9.12695 0.614258H6.97227V6.55605L6.96953 9.80996C6.96953 10.6795 6.39805 11.4178 5.60508 11.6775C5.37539 11.7541 5.12656 11.7896 4.8668 11.7732C4.53594 11.7541 4.22695 11.6557 3.95898 11.4971C4.29531 12.0166 4.86953 12.3693 5.52305 12.4049Z" fill="#08FFF9"/>
<path d="M5.60509 13.8814C6.48009 13.7529 7.28673 13.351 7.92384 12.7221C8.70587 11.9482 9.1379 10.9229 9.14337 9.8291L9.13243 4.96465C9.50431 5.25176 9.91173 5.49238 10.352 5.67559C11.0328 5.9627 11.7547 6.11035 12.4957 6.11035V4.53262C11.6727 4.37402 10.9563 3.91465 10.4668 3.26934C9.8215 2.78262 9.35665 2.06621 9.19532 1.24316H7.62853V7.18496L7.62579 10.4389C7.62579 11.3084 7.05431 12.0467 6.26134 12.3064C6.03165 12.383 5.78282 12.4186 5.52306 12.4021C4.86681 12.3666 4.29532 12.0139 3.959 11.4971C3.38751 11.158 2.99923 10.5428 2.98829 9.8373C2.97189 8.73809 3.86876 7.84121 4.97892 7.84121C5.19767 7.84121 5.40822 7.87676 5.60509 7.93965V6.3209C4.5004 6.3291 3.46407 6.7584 2.68478 7.53223C1.91095 8.30059 1.46798 9.35059 1.47072 10.4389C1.47072 11.4068 1.80704 12.3256 2.42775 13.0611C3.15509 13.6217 4.04376 13.9252 4.97892 13.9252C5.18947 13.9279 5.40001 13.9115 5.60509 13.8814Z" fill="black"/>
</g>
<defs>
<clipPath id="clip0_2109_5031">
<rect width="14" height="14" fill="white" transform="translate(0 0.586914)"/>
</clipPath>
</defs>
</svg>
