<svg width="24" height="24" viewBox="0 0 24 24" fill="none" xmlns="http://www.w3.org/2000/svg">
<path d="M20.5434 6.27733L20.2356 6.3749L18.5966 6.52092L18.1337 7.2602L17.7978 7.15346L16.4934 5.97743L16.3041 5.36584L16.0507 4.71365L15.2309 3.9783L14.2638 3.78906L14.2415 4.23171L15.189 5.1563L15.6526 5.70241L15.1314 5.97481L14.7071 5.84974L14.0712 5.58454L14.0929 5.07183L13.2586 4.72871L12.9817 5.93421L12.1409 6.12476L12.224 6.79725L13.3195 7.0081L13.5088 5.93356L14.4131 6.06714L14.8334 6.31334H15.5079L15.9695 7.23793L17.1934 8.47945L17.1037 8.96204L16.1169 8.83632L14.4118 9.69739L13.184 11.1701L13.0242 11.8222H12.5835L11.7624 11.4438L10.9648 11.8222L11.1633 12.6637L11.5103 12.2636L12.1206 12.2446L12.078 13.0002L12.5835 13.1482L13.0884 13.7153L13.9128 13.4835L14.8544 13.6321L15.9479 13.9261L16.494 13.9903L17.4199 15.0413L19.2069 16.0922L18.0512 18.3003L16.8313 18.8673L16.3683 20.1291L14.603 21.3078L14.415 21.9875C18.928 20.9005 22.2852 16.8466 22.2852 11.9997C22.2838 9.8827 21.6421 7.91238 20.5434 6.27733Z" fill="white"/>
<path d="M13.1851 17.3755L12.436 15.9867L13.1235 14.5539L12.436 14.3483L11.664 13.573L9.95361 13.1893L9.38589 12.0015V12.7067H9.13575L7.66178 10.7083V9.06665L6.58135 7.3098L4.86575 7.6156H3.71002L3.12855 7.2345L3.87045 6.64648L3.13051 6.81739C2.23867 8.34047 1.71875 10.1078 1.71875 12.0008C1.71875 17.68 6.3227 22.2859 12.0025 22.2859C12.4399 22.2859 12.8688 22.2473 13.2931 22.1962L13.1857 20.9501C13.1857 20.9501 13.6579 19.0996 13.6579 19.0368C13.6572 18.9732 13.1851 17.3755 13.1851 17.3755Z" fill="white"/>
<path d="M5.5397 5.03096L7.36661 4.77624L8.2087 4.3146L9.1562 4.58765L10.6701 4.50384L11.1887 3.6886L11.945 3.81301L13.7818 3.6408L14.2879 3.0829L15.0017 2.6062L16.0114 2.75812L16.3794 2.70246C15.0495 2.07646 13.5696 1.71436 12.0013 1.71436C8.80915 1.71436 5.95485 3.16934 4.07031 5.45396H4.07555L5.5397 5.03096ZM12.4361 2.73716L13.4864 2.15897L14.1609 2.54858L13.1846 3.29179L12.2521 3.38542L11.8324 3.11302L12.4361 2.73716ZM9.32514 2.82163L9.78875 3.0148L10.3958 2.82163L10.7264 3.39459L9.32514 3.76259L8.65135 3.3684C8.65135 3.3684 9.31008 2.94408 9.32514 2.82163Z" fill="white"/>
</svg>
