<svg width="25" height="24" viewBox="0 0 25 24" fill="none" xmlns="http://www.w3.org/2000/svg">
<g clipPath="url(#clip0_2029_111)">
<path fill-rule="evenodd" clip-rule="evenodd" d="M12.4999 0.402344C18.915 0.402344 24.1155 5.60266 24.1155 12.0181C24.1155 18.4332 18.915 23.6335 12.4999 23.6335C6.08477 23.6335 0.884277 18.4332 0.884277 12.0181C0.884277 5.60267 6.08476 0.402344 12.4999 0.402344Z" fill="black"/>
<path fill-rule="evenodd" clip-rule="evenodd" d="M15.313 6.87448C14.8728 6.87448 14.3534 6.97713 13.7547 7.18242C13.1561 7.38782 12.7247 7.49057 12.4606 7.49067C12.2551 7.49067 11.8399 7.39967 11.2148 7.21766C10.5898 7.03566 10.0572 6.94465 9.61695 6.94465C8.58399 6.94465 7.72857 7.37906 7.05067 8.24786C6.37279 9.11625 6.03385 10.2401 6.03385 11.6195C6.03651 12.383 6.14918 13.1421 6.36839 13.8734C6.60962 14.6726 6.9435 15.4407 7.36322 16.1623C7.80926 16.9429 8.25826 17.5283 8.7102 17.9186C9.1621 18.3089 9.61695 18.504 10.0748 18.504C10.3799 18.504 10.7776 18.4028 11.2677 18.2003C11.7578 17.9977 12.1877 17.8965 12.5574 17.8965C12.9272 17.8965 13.3806 17.9934 13.9176 18.1871C14.4546 18.381 14.8757 18.4779 15.1809 18.4778C15.5683 18.4778 15.9557 18.331 16.343 18.0375C16.7303 17.744 17.1177 17.3008 17.5051 16.708C17.7503 16.3377 17.9722 15.9525 18.1698 15.5547C18.3474 15.1974 18.4961 14.8265 18.6144 14.4454C18.0803 14.2871 17.6049 13.9086 17.1882 13.3098C16.7741 12.7198 16.5555 12.0147 16.5631 11.2939C16.5648 10.805 16.6745 10.3224 16.8844 9.88082C17.0986 9.42003 17.5315 8.91385 18.183 8.36228C17.7663 7.84574 17.3261 7.46859 16.8624 7.23082C16.3821 6.98926 15.8506 6.86702 15.313 6.87448ZM15.1633 3.47627C14.1128 3.7166 13.36 4.16264 12.9052 4.81441C12.4503 5.46585 12.217 6.23757 12.2053 7.12956C12.6631 7.10617 13.0299 7.03279 13.3058 6.90942C13.609 6.76688 13.8835 6.56998 14.1157 6.32848C14.4772 5.97689 14.762 5.55422 14.9521 5.08712C15.1282 4.64107 15.2162 4.23027 15.2162 3.85473C15.2162 3.79608 15.2132 3.73744 15.2074 3.67847C15.1994 3.6098 15.1846 3.54207 15.1633 3.47627ZM12.4999 0.402344C18.915 0.402344 24.1155 5.60266 24.1155 12.0181C24.1155 18.4332 18.915 23.6335 12.4999 23.6335C6.08477 23.6335 0.884277 18.4332 0.884277 12.0181C0.884277 5.60267 6.08476 0.402344 12.4999 0.402344Z" fill="white"/>
</g>
<defs>
<clipPath id="clip0_2029_111">
<rect width="24" height="24" fill="white" transform="translate(0.5)"/>
</clipPath>
</defs>
</svg>
