<svg width="80" height="80" viewBox="0 0 80 80" fill="none" xmlns="http://www.w3.org/2000/svg">
<path fill-rule="evenodd" clip-rule="evenodd" d="M62.7001 7.5001C47.5666 7.5001 32.4334 7.5001 17.3 7.5001C17.3 6.5001 17.3 5.5001 17.3 4.5001C17.633 2.80022 18.633 1.70023 20.3 1.2001C33.3666 1.06676 46.4334 1.06676 59.5 1.2001C60.9818 1.68178 62.0153 2.64844 62.6 4.1001C62.6998 5.23148 62.7332 6.36482 62.7001 7.5001Z" fill="white"/>
<path fill-rule="evenodd" clip-rule="evenodd" d="M17.3001 4.5C17.3001 5.5 17.3001 6.5 17.3001 7.5C32.4335 7.5 47.5667 7.5 62.7001 7.5C47.5337 7.69986 32.3337 7.76652 17.1001 7.7C17.0358 6.59476 17.1025 5.5281 17.3001 4.5Z" fill="#242424"/>
<path fill-rule="evenodd" clip-rule="evenodd" d="M17.3 11.8999C32.4334 11.8999 47.5666 11.8999 62.7 11.8999C62.7 20.6333 62.7 29.3665 62.7 38.0999C55.8334 38.0999 48.9666 38.0999 42.1 38.0999C42.1334 32.4995 42.1 26.8995 42 21.2999C40.898 19.9794 39.8312 19.9794 38.8 21.2999C38.7 26.8995 38.6666 32.4995 38.7 38.0999C35.7 38.0999 32.7 38.0999 29.7 38.0999C29.7334 34.1661 29.7 30.2327 29.6 26.2999C28.9216 25.1065 27.9548 24.8065 26.7 25.3999C26.3918 25.7157 26.1584 26.0825 26 26.4999C25.9 30.3659 25.8666 34.2327 25.9 38.0999C23.0334 38.0999 20.1666 38.0999 17.3 38.0999C17.3 29.3665 17.3 20.6333 17.3 11.8999Z" fill="white"/>
<path fill-rule="evenodd" clip-rule="evenodd" d="M18.5 40.5001C19.1037 40.4671 19.7037 40.5005 20.3 40.6001C21.0914 41.6827 21.858 42.7827 22.6 43.9001C22.6998 42.7687 22.7332 41.6353 22.7 40.5001C23.3666 40.5001 24.0334 40.5001 24.7 40.5001C24.7 42.8335 24.7 45.1667 24.7 47.5001C24.1626 47.5329 23.6292 47.4995 23.1 47.4001C22.2554 46.3553 21.4888 45.2553 20.8 44.1001C20.7334 45.1667 20.6666 46.2335 20.6 47.3001C19.9213 47.4913 19.2213 47.5579 18.5 47.5001C18.5 45.1667 18.5 42.8335 18.5 40.5001Z" fill="white"/>
<path fill-rule="evenodd" clip-rule="evenodd" d="M25.7 40.5C27.4334 40.5 29.1666 40.5 30.9 40.5C30.9 41.0334 30.9 41.5666 30.9 42.1C29.9 42.1 28.9 42.1 27.9 42.1C27.9 42.4334 27.9 42.7666 27.9 43.1C28.7 43.1 29.5 43.1 30.3 43.1C30.3 43.7 30.3 44.3 30.3 44.9C29.5 44.9 28.7 44.9 27.9 44.9C27.9 45.1666 27.9 45.4334 27.9 45.7C28.9 45.7 29.9 45.7 30.9 45.7C30.9 46.3 30.9 46.9 30.9 47.5C29.183 47.5634 27.483 47.4966 25.8 47.3C25.7 45.0344 25.6666 42.7676 25.7 40.5Z" fill="white"/>
<path fill-rule="evenodd" clip-rule="evenodd" d="M34.0999 47.3C34.0999 45.5666 34.0999 43.8334 34.0999 42.1C33.4333 42.1 32.7665 42.1 32.0999 42.1C31.9053 41.6104 31.8387 41.077 31.8999 40.5C33.9665 40.5 36.0333 40.5 38.0999 40.5C38.0999 41.0334 38.0999 41.5666 38.0999 42.1C37.4333 42.1 36.7665 42.1 36.0999 42.1C36.0999 43.9 36.0999 45.7 36.0999 47.5C35.3915 47.5626 34.7249 47.4958 34.0999 47.3Z" fill="white"/>
<path fill-rule="evenodd" clip-rule="evenodd" d="M40.5001 40.3002C41.4993 40.2518 42.4659 40.3852 43.4001 40.7002C43.8167 42.219 43.3501 42.619 42.0001 41.9002C41.6677 41.8778 41.4343 42.011 41.3001 42.3002C42.1691 43.0692 43.0025 43.8692 43.8001 44.7002C44.1275 45.9916 43.6941 46.8916 42.5001 47.4002C41.6335 47.5336 40.7667 47.5336 39.9001 47.4002C38.9635 46.9424 38.8635 46.309 39.6001 45.5002C40.3295 46.0126 41.0295 46.0126 41.7001 45.5002C41.0345 44.8686 40.3345 44.2686 39.6001 43.7002C38.7187 42.2156 39.0187 41.0822 40.5001 40.3002Z" fill="white"/>
<path fill-rule="evenodd" clip-rule="evenodd" d="M47.6999 40.3001C51.3995 40.1769 52.8995 41.9101 52.1999 45.5001C51.0485 47.3071 49.4151 47.9405 47.2999 47.4001C45.0383 46.0825 44.4717 44.2491 45.5999 41.9001C46.1879 41.1927 46.8879 40.6595 47.6999 40.3001Z" fill="white"/>
<path fill-rule="evenodd" clip-rule="evenodd" d="M56.3001 40.3001C58.4675 40.1001 60.0341 40.9667 61.0001 42.9001C61.1305 46.4351 59.4305 47.9351 55.9001 47.4001C53.8525 46.3389 53.1525 44.7055 53.8001 42.5001C54.4249 41.5073 55.2583 40.7741 56.3001 40.3001Z" fill="white"/>
<path fill-rule="evenodd" clip-rule="evenodd" d="M32.1001 42.1001C32.7667 42.1001 33.4335 42.1001 34.1001 42.1001C34.1001 43.8335 34.1001 45.5667 34.1001 47.3001C33.9015 45.6701 33.8349 44.0035 33.9001 42.3001C33.2575 42.3621 32.6575 42.2955 32.1001 42.1001Z" fill="#242424"/>
<path fill-rule="evenodd" clip-rule="evenodd" d="M48.0999 42.0998C49.9059 42.0714 50.6725 42.9382 50.3999 44.6998C49.6915 45.975 48.7247 46.2084 47.4999 45.3998C46.5705 44.0746 46.7705 42.9746 48.0999 42.0998Z" fill="#242424"/>
<path fill-rule="evenodd" clip-rule="evenodd" d="M56.7 42.1001C58.7698 42.1369 59.4698 43.1369 58.8 45.1001C57.4874 46.2643 56.4208 46.0643 55.6 44.5001C55.3746 43.4179 55.7414 42.6179 56.7 42.1001Z" fill="#242424"/>
<path fill-rule="evenodd" clip-rule="evenodd" d="M17.3 50.8999C32.4334 50.8999 47.5666 50.8999 62.7 50.8999C62.7 53.8999 62.7 56.8999 62.7 59.8999C47.5666 59.8999 32.4334 59.8999 17.3 59.8999C17.3 56.8999 17.3 53.8999 17.3 50.8999Z" fill="white"/>
<path fill-rule="evenodd" clip-rule="evenodd" d="M62.7001 64.2998C62.7335 67.967 62.7001 71.6338 62.6001 75.2998C62.1803 76.7194 61.2803 77.6862 59.9001 78.1998C46.5667 78.3332 33.2334 78.3332 19.9 78.1998C18.3292 77.6616 17.4626 76.5616 17.3 74.8998C17.3 71.3664 17.3 67.8332 17.3 64.2998C32.4334 64.2998 47.5667 64.2998 62.7001 64.2998Z" fill="white"/>
<path fill-rule="evenodd" clip-rule="evenodd" d="M62.7001 64.3001C47.5667 64.3001 32.4335 64.3001 17.3001 64.3001C17.3001 67.8335 17.3001 71.3667 17.3001 74.9001C17.1007 71.3349 17.0341 67.7349 17.1001 64.1001C32.3337 64.0335 47.5337 64.1003 62.7001 64.3001Z" fill="#242424"/>
<path fill-rule="evenodd" clip-rule="evenodd" d="M39.5 69.1001C41.7428 69.2421 42.5094 70.3753 41.8 72.5001C40.9504 73.5193 39.917 73.7527 38.7 73.2001C37.1924 71.4785 37.459 70.1117 39.5 69.1001Z" fill="#242424"/>
</svg>
