<svg width="20" height="20" viewBox="0 0 20 20" fill="none" xmlns="http://www.w3.org/2000/svg">
<g clip-path="url(#clip0_2798_39207)">
<path d="M4.94141 5.77979L6.00391 9.32062M10.6764 13.9948L14.2189 15.0573" stroke="white" stroke-width="1.25" stroke-linecap="round" stroke-linejoin="round"/>
<path d="M9.73438 10.264L14.5335 5.46484" stroke="white" stroke-width="1.25" stroke-linecap="round" stroke-linejoin="round"/>
<path d="M3.33203 4.5835C3.33203 4.74765 3.36436 4.91019 3.42718 5.06185C3.49 5.21351 3.58207 5.35131 3.69815 5.46738C3.81422 5.58345 3.95202 5.67553 4.10368 5.73835C4.25533 5.80116 4.41788 5.8335 4.58203 5.8335C4.74618 5.8335 4.90873 5.80116 5.06039 5.73835C5.21204 5.67553 5.34984 5.58345 5.46591 5.46738C5.58199 5.35131 5.67406 5.21351 5.73688 5.06185C5.7997 4.91019 5.83203 4.74765 5.83203 4.5835C5.83203 4.41934 5.7997 4.2568 5.73688 4.10514C5.67406 3.95348 5.58199 3.81569 5.46591 3.69961C5.34984 3.58354 5.21204 3.49146 5.06039 3.42865C4.90873 3.36583 4.74618 3.3335 4.58203 3.3335C4.41788 3.3335 4.25533 3.36583 4.10368 3.42865C3.95202 3.49146 3.81422 3.58354 3.69815 3.69961C3.58207 3.81569 3.49 3.95348 3.42718 4.10514C3.36436 4.2568 3.33203 4.41934 3.33203 4.5835Z" stroke="white" stroke-width="1.25" stroke-linecap="round" stroke-linejoin="round"/>
<path d="M14.168 4.5835C14.168 4.91502 14.2997 5.23296 14.5341 5.46738C14.7685 5.7018 15.0864 5.8335 15.418 5.8335C15.7495 5.8335 16.0674 5.7018 16.3019 5.46738C16.5363 5.23296 16.668 4.91502 16.668 4.5835C16.668 4.25198 16.5363 3.93403 16.3019 3.69961C16.0674 3.46519 15.7495 3.3335 15.418 3.3335C15.0864 3.3335 14.7685 3.46519 14.5341 3.69961C14.2997 3.93403 14.168 4.25198 14.168 4.5835Z" stroke="white" stroke-width="1.25" stroke-linecap="round" stroke-linejoin="round"/>
<path d="M14.168 15.4165C14.168 15.748 14.2997 16.066 14.5341 16.3004C14.7685 16.5348 15.0864 16.6665 15.418 16.6665C15.7495 16.6665 16.0674 16.5348 16.3019 16.3004C16.5363 16.066 16.668 15.748 16.668 15.4165C16.668 15.085 16.5363 14.767 16.3019 14.5326C16.0674 14.2982 15.7495 14.1665 15.418 14.1665C15.0864 14.1665 14.7685 14.2982 14.5341 14.5326C14.2997 14.767 14.168 15.085 14.168 15.4165Z" stroke="white" stroke-width="1.25" stroke-linecap="round" stroke-linejoin="round"/>
<path d="M3.33203 12.9165C3.33203 13.9111 3.72712 14.8649 4.43038 15.5682C5.13364 16.2714 6.08747 16.6665 7.08203 16.6665C8.07659 16.6665 9.03042 16.2714 9.73368 15.5682C10.4369 14.8649 10.832 13.9111 10.832 12.9165C10.832 11.9219 10.4369 10.9681 9.73368 10.2649C9.03042 9.56159 8.07659 9.1665 7.08203 9.1665C6.08747 9.1665 5.13364 9.56159 4.43038 10.2649C3.72712 10.9681 3.33203 11.9219 3.33203 12.9165Z" stroke="white" stroke-width="1.25" stroke-linecap="round" stroke-linejoin="round"/>
</g>
<defs>
<clipPath id="clip0_2798_39207">
<rect width="20" height="20" fill="white"/>
</clipPath>
</defs>
</svg>
