<svg width="20" height="20" viewBox="0 0 20 20" fill="none" xmlns="http://www.w3.org/2000/svg">
<path d="M6.03464 1.6665H4.4513C2.6263 1.6665 1.66797 2.62484 1.66797 4.4415V6.02484C1.66797 7.8415 2.6263 8.79984 4.44297 8.79984H6.0263C7.84297 8.79984 8.8013 7.8415 8.8013 6.02484V4.4415C8.80964 2.62484 7.8513 1.6665 6.03464 1.6665Z" fill="white"/>
<path d="M15.5576 1.6665H13.9742C12.1576 1.6665 11.1992 2.62484 11.1992 4.4415V6.02484C11.1992 7.8415 12.1576 8.79984 13.9742 8.79984H15.5576C17.3742 8.79984 18.3326 7.8415 18.3326 6.02484V4.4415C18.3326 2.62484 17.3742 1.6665 15.5576 1.6665Z" fill="white"/>
<path d="M15.5576 11.1919H13.9742C12.1576 11.1919 11.1992 12.1502 11.1992 13.9669V15.5502C11.1992 17.3669 12.1576 18.3252 13.9742 18.3252H15.5576C17.3742 18.3252 18.3326 17.3669 18.3326 15.5502V13.9669C18.3326 12.1502 17.3742 11.1919 15.5576 11.1919Z" fill="white"/>
<path opacity="0.4" d="M6.03464 11.1914H4.4513C2.6263 11.1914 1.66797 12.1497 1.66797 13.9664V15.5497C1.66797 17.3747 2.6263 18.3331 4.44297 18.3331H6.0263C7.84297 18.3331 8.8013 17.3747 8.8013 15.5581V13.9747C8.80964 12.1497 7.8513 11.1914 6.03464 11.1914Z" fill="white"/>
</svg>
