<svg width="20" height="20" viewBox="0 0 20 20" fill="none" xmlns="http://www.w3.org/2000/svg">
<g clip-path="url(#clip0_2798_39226)">
<path d="M6.66797 5.83333C6.66797 6.71739 7.01916 7.56523 7.64428 8.19036C8.2694 8.81548 9.11725 9.16667 10.0013 9.16667C10.8854 9.16667 11.7332 8.81548 12.3583 8.19036C12.9834 7.56523 13.3346 6.71739 13.3346 5.83333C13.3346 4.94928 12.9834 4.10143 12.3583 3.47631C11.7332 2.85119 10.8854 2.5 10.0013 2.5C9.11725 2.5 8.2694 2.85119 7.64428 3.47631C7.01916 4.10143 6.66797 4.94928 6.66797 5.83333Z" stroke="white" stroke-width="1.25" stroke-linecap="round" stroke-linejoin="round"/>
<path d="M5 17.5V15.8333C5 14.9493 5.35119 14.1014 5.97631 13.4763C6.60143 12.8512 7.44928 12.5 8.33333 12.5H11.6667C12.5507 12.5 13.3986 12.8512 14.0237 13.4763C14.6488 14.1014 15 14.9493 15 15.8333V17.5" stroke="white" stroke-width="1.25" stroke-linecap="round" stroke-linejoin="round"/>
</g>
<defs>
<clipPath id="clip0_2798_39226">
<rect width="20" height="20" fill="white"/>
</clipPath>
</defs>
</svg>
